<svg width="584" height="454" viewBox="0 0 584 454" fill="none" xmlns="http://www.w3.org/2000/svg">
<path d="M1.60358 160.983C1.60358 159.63 1.66774 158.276 1.73188 156.952C1.76396 155.57 1.82809 154.216 1.9243 152.863C2.08465 149.921 2.30915 147.009 2.53364 144.067C2.66192 142.478 2.85436 140.919 3.04678 139.33C3.20713 137.918 3.39953 136.506 3.62402 135.123C3.81644 133.888 3.97682 132.623 4.20131 131.387C4.45787 129.945 4.68233 128.474 4.97097 127.033C5.29167 125.533 5.6124 124.003 5.90103 122.473C6.02931 121.885 6.18966 121.296 6.35001 120.737C6.60658 119.737 6.86311 118.766 7.11967 117.766C7.44037 116.471 7.92146 115.177 8.3063 113.882C8.46666 113.323 8.65904 112.764 8.81939 112.206C9.04388 111.499 9.33252 110.793 9.62115 110.087C10.0701 108.881 10.455 107.675 11.0002 106.498C11.7057 104.91 12.3472 103.291 13.1168 101.732C13.7903 100.32 14.4959 98.9374 15.1693 97.5253C15.7466 96.3485 16.388 95.2011 16.9973 94.0538C17.6067 92.9652 18.1518 91.8473 18.7933 90.7882C19.6592 89.3467 20.5571 87.8757 21.423 86.4341C21.7117 85.934 22.0644 85.4633 22.4172 84.9632C22.9624 84.1394 23.5076 83.3451 24.0528 82.5214C24.8225 81.374 25.6563 80.2855 26.4902 79.197C27.1957 78.2555 27.9012 77.3141 28.6709 76.4021C29.3123 75.6372 29.9537 74.8723 30.5951 74.1074C31.0121 73.6073 31.3969 73.1072 31.8459 72.6364C32.9683 71.4008 34.1229 70.1652 35.2453 68.9296C36.2074 67.8705 37.2337 66.8702 38.2599 65.87C39.0617 65.0462 39.8955 64.2519 40.7294 63.4576C41.8198 62.4279 42.878 61.3688 44.0005 60.3686C46.2134 58.3975 48.3942 56.3969 50.6391 54.4847C51.9219 53.3962 53.2047 52.3371 54.4875 51.2486C55.7382 50.1895 57.0531 49.2186 58.3359 48.2184C60.5488 46.4826 62.8258 44.8351 65.1028 43.1582C66.3856 42.2168 67.7646 41.3636 69.1115 40.4811C70.1378 39.775 71.164 39.0983 72.2544 38.4511C73.8579 37.4803 75.4294 36.5389 77.0329 35.568C78.2195 34.862 79.4382 34.2147 80.6569 33.5381C81.7473 32.9497 82.8056 32.3319 83.9281 31.7435C85.5316 30.9198 87.103 30.1254 88.7065 29.3017C90.1497 28.5662 91.5928 27.919 93.0681 27.2129C94.1584 26.6834 95.2488 26.1832 96.3392 25.6831C98.071 24.8888 99.7708 24.1239 101.503 23.3296C102.721 22.7706 103.94 22.2999 105.159 21.7703C106.602 21.1525 108.045 20.5053 109.52 19.9463C111.252 19.2991 112.984 18.6225 114.683 17.9458C115.742 17.5339 116.832 17.1515 117.89 16.769C118.885 16.416 119.879 16.063 120.873 15.7099C121.418 15.5334 121.931 15.3275 122.477 15.151C124.176 14.6214 125.876 14.0919 127.544 13.5623C128.762 13.1799 130.013 12.8268 131.264 12.5032C132.867 12.0619 134.439 11.6501 136.042 11.2088C136.587 11.0617 137.133 10.944 137.678 10.8263C138.897 10.5321 140.115 10.2673 141.334 9.97315C142.456 9.70838 143.579 9.47302 144.701 9.23767C146.369 8.88463 148.037 8.50218 149.704 8.20799C152.847 7.64902 155.958 7.09005 159.101 6.61934C160.48 6.41341 161.859 6.17805 163.238 6.00153C165.194 5.73676 167.15 5.47198 169.107 5.23663C171.801 4.8836 174.527 4.55998 177.221 4.29521C180.363 3.9716 183.506 3.64798 186.649 3.38321C188.381 3.23611 190.145 3.08901 191.877 2.94192C193.544 2.79482 195.212 2.73598 196.88 2.6183C199.926 2.44179 202.941 2.29469 205.988 2.14759C212.113 1.8534 218.238 1.73572 224.364 1.58863C229.623 1.47095 234.851 1.41211 240.11 1.41211C240.816 1.41211 241.554 1.41211 242.259 1.41211C254.927 1.44153 267.627 1.50037 280.294 1.91224C286.356 2.11817 292.449 2.41237 298.51 2.73598C299.697 2.79482 300.851 2.88308 302.038 2.94192C303.738 3.05959 305.438 3.14785 307.137 3.29495C310.28 3.58914 313.423 3.88334 316.534 4.26579C318.169 4.47173 319.837 4.70708 321.473 4.91302C323.301 5.14837 325.097 5.47198 326.925 5.76618C329.779 6.20747 332.569 6.76644 335.391 7.35483C335.744 7.41366 336.097 7.50192 336.449 7.56076C338.31 7.67844 340.17 7.79612 342.03 7.91379C348.572 8.41392 355.082 9.00231 361.625 9.7378C367.846 10.4439 374.036 11.4147 380.225 12.415C386.319 13.3858 392.38 14.6508 398.409 15.9453C399.596 16.2101 400.815 16.4748 402.001 16.769C403.444 17.0926 404.887 17.4163 406.299 17.7987C408.127 18.2694 409.955 18.7695 411.783 19.2403C413.097 19.5933 414.38 19.9757 415.663 20.3582C416.946 20.7406 418.229 21.0643 419.512 21.4761C421.404 22.0939 423.296 22.7117 425.188 23.359C428.042 24.3004 430.864 25.3889 433.687 26.448C434.905 26.8893 436.092 27.3894 437.278 27.8896C438.625 28.4485 439.972 28.9487 441.319 29.537C444.27 30.8315 447.22 32.126 450.139 33.4792C453.121 34.862 456.072 36.3035 459.054 37.7451C460.273 38.3334 461.459 38.9807 462.678 39.5985C463.897 40.2163 465.083 40.8341 466.27 41.4813C467.906 42.3639 469.573 43.2759 471.209 44.1585C472.492 44.8645 473.742 45.6 475.025 46.3355C477.751 47.8947 480.445 49.5422 483.139 51.1603C484.229 51.8369 485.32 52.543 486.41 53.2491C487.501 53.9551 488.591 54.6612 489.681 55.3673C492.407 57.2207 495.133 59.1035 497.827 61.0158C500.265 62.7515 502.67 64.5461 505.043 66.3113C506.262 67.2233 507.448 68.2235 508.635 69.165C509.597 69.9299 510.527 70.6653 511.457 71.4597C512.932 72.7247 514.375 73.9603 515.851 75.1959C516.877 76.0785 517.871 76.9905 518.865 77.9025C519.731 78.6968 520.629 79.4617 521.463 80.2855C522.874 81.6976 524.317 83.1392 525.728 84.5513C526.466 85.2868 527.139 86.0517 527.813 86.7872C529 88.111 530.218 89.4349 531.405 90.7588C532.367 91.8179 533.233 92.9358 534.131 94.0243C534.997 95.0834 535.927 96.0837 536.728 97.1722C537.883 98.6432 539.005 100.144 540.16 101.644C540.93 102.644 541.667 103.703 542.437 104.733C544.265 107.263 546.061 109.823 547.857 112.382C548.498 113.294 549.076 114.206 549.685 115.118C550.455 116.324 551.288 117.501 552.026 118.707C552.956 120.237 553.918 121.796 554.848 123.326C555.49 124.356 556.067 125.415 556.644 126.474C557.382 127.798 558.119 129.122 558.857 130.446C559.114 130.887 559.338 131.387 559.562 131.828C560.076 132.858 560.621 133.888 561.134 134.917C562.353 137.3 563.443 139.742 564.565 142.154C565.207 143.508 565.784 144.89 566.393 146.273C566.875 147.362 567.356 148.45 567.805 149.568C568.895 152.304 570.017 155.011 570.947 157.776C571.557 159.541 572.134 161.336 572.743 163.101C573.096 164.16 573.353 165.249 573.641 166.337C574.09 167.985 574.539 169.632 574.956 171.28C575.309 172.545 575.533 173.839 575.822 175.104C576.143 176.487 576.431 177.87 576.752 179.282C577.105 180.87 577.361 182.459 577.682 184.048C578.259 187.019 578.805 189.961 579.35 192.932C579.799 195.404 580.28 197.875 580.665 200.375C580.921 201.993 581.178 203.641 581.434 205.259C581.691 206.848 581.819 208.436 582.012 209.996C582.14 211.084 582.236 212.173 582.3 213.291C582.364 214.261 582.429 215.232 582.493 216.203C582.493 216.674 582.557 217.115 582.557 217.586C582.557 219.321 582.557 221.028 582.557 222.764C582.557 224.176 582.364 225.588 582.268 227C582.204 227.706 582.172 228.412 582.108 229.148C582.076 229.618 581.98 230.089 581.915 230.56C581.659 232.325 581.402 234.09 581.114 235.855C581.05 236.267 580.953 236.708 580.857 237.12C580.665 238.091 580.472 239.091 580.28 240.062C580.023 241.327 579.735 242.592 579.446 243.857C579.125 245.152 578.869 246.417 578.516 247.711C578.035 249.476 577.522 251.242 577.041 253.007C576.72 254.183 576.335 255.331 575.95 256.478C575.533 257.743 575.149 259.008 574.7 260.273C574.09 261.95 573.513 263.627 572.904 265.333C572.423 266.657 571.877 267.952 571.332 269.246C570.947 270.246 570.531 271.247 570.114 272.218C569.344 273.924 568.606 275.66 567.837 277.366C567.323 278.513 566.746 279.631 566.201 280.749C565.624 281.926 565.079 283.132 564.469 284.309C563.635 285.868 562.802 287.427 561.968 288.987C561.326 290.163 560.589 291.311 559.915 292.488C559.338 293.429 558.793 294.4 558.151 295.341C558.023 295.547 557.895 295.724 557.767 295.93C556.74 298.195 555.65 300.46 554.431 302.667C553.758 303.902 553.052 305.138 552.315 306.344C551.545 307.609 550.743 308.874 549.941 310.11C548.306 312.64 546.51 315.082 544.746 317.494C543.014 319.848 541.25 322.201 539.486 324.555C535.959 329.203 532.142 333.675 528.262 338.088C524.542 342.295 520.533 346.266 516.492 350.238C514.375 352.327 512.227 354.445 510.078 356.504C509.052 357.504 508.026 358.505 506.967 359.505C505.781 360.623 504.626 361.77 503.375 362.829C502.253 363.83 501.098 364.83 499.976 365.83C499.463 366.301 498.886 366.742 498.34 367.183C497.763 367.654 497.218 368.125 496.641 368.595C494.267 370.39 491.926 372.214 489.425 373.862C488.174 374.685 486.955 375.509 485.705 376.333C485.127 376.715 484.518 377.068 483.909 377.421C483.299 377.804 482.69 378.216 482.049 378.539C480.798 379.186 479.579 379.893 478.328 380.51C476.885 381.216 475.474 381.952 473.999 382.57C472.652 383.129 471.337 383.746 469.99 384.276C468.483 384.864 466.943 385.482 465.436 386.071C462.71 387.13 459.984 388.159 457.258 389.218C454.212 390.395 451.165 391.543 448.118 392.69C445.36 393.72 442.538 394.661 439.716 395.514C438.465 395.897 437.214 396.309 435.964 396.632C434.36 397.073 432.757 397.544 431.153 397.897C427.85 398.662 424.579 399.427 421.275 400.162C418.325 400.839 415.374 401.486 412.424 402.134C411.205 402.398 409.955 402.663 408.704 402.898C407.229 403.193 405.785 403.487 404.31 403.752C398.313 404.752 392.284 405.664 386.255 406.458C380.033 407.282 373.779 408.076 367.526 408.547C355.243 409.488 342.896 409.93 330.581 409.694C327.181 409.636 323.782 409.577 320.382 409.459C317.207 409.371 314.032 409.194 310.825 409.047C309.318 408.959 307.811 408.812 306.303 408.694C304.989 408.606 303.674 408.488 302.359 408.341C300.755 408.165 299.152 407.988 297.516 407.812C295.688 407.606 293.86 407.311 292.032 407.047C285.907 406.193 279.845 405.193 273.752 404.193C270.962 403.752 268.172 403.222 265.446 402.663C264.003 402.369 262.56 402.104 261.116 401.751C259.288 401.31 257.46 400.869 255.632 400.427C253.901 400.015 252.233 399.515 250.501 399.045C248.833 398.603 247.134 398.074 245.498 397.574C241.714 396.397 237.962 395.191 234.177 393.955C230.585 392.778 226.962 391.69 223.305 390.601C221.51 390.072 219.682 389.601 217.854 389.101C216.475 388.718 215.096 388.306 213.684 387.895C211.311 390.16 208.938 392.396 206.501 394.632C204.769 396.191 203.037 397.78 201.241 399.28C199.349 400.869 197.425 402.457 195.468 404.016C191.588 407.105 187.611 410.077 183.57 412.989C181.422 414.549 179.305 416.108 176.996 417.461C174.879 418.756 172.699 419.962 170.518 421.138C168.305 422.345 166.092 423.551 163.815 424.698C162.532 425.345 161.217 426.022 159.935 426.669C158.748 427.258 157.561 427.817 156.375 428.376C154.29 429.347 152.206 430.288 150.089 431.229C147.812 432.23 145.503 433.259 143.194 434.23C140.564 435.289 137.966 436.348 135.337 437.378C133.028 438.261 130.719 439.084 128.377 439.937C125.812 440.879 123.214 441.791 120.616 442.674C118.404 443.438 116.159 444.144 113.914 444.821C111.444 445.586 108.975 446.38 106.473 447.086C105.062 447.469 103.683 447.881 102.272 448.263C101.021 448.616 99.7707 448.881 98.52 449.205C97.3013 449.499 96.0506 449.764 94.8319 450.028C93.7095 450.264 92.587 450.499 91.4645 450.705C88.931 451.146 86.3974 451.617 83.8318 451.941C81.9396 452.176 80.0796 452.411 78.1874 452.47C77.065 452.529 75.7822 452.382 74.9484 451.646C74.4032 451.176 74.1145 450.646 74.0824 449.969C74.0824 449.263 74.3069 448.704 74.6276 448.087C74.8201 447.675 75.1087 447.322 75.3973 446.969C75.8143 446.439 76.2632 445.91 76.6801 445.38C77.2253 444.733 77.7706 444.115 78.3157 443.497C80.6248 440.908 82.9018 438.29 85.1467 435.642C86.6219 433.848 88.0972 432.053 89.5082 430.2C90.2459 429.258 91.0155 428.317 91.7532 427.317C92.587 426.199 93.3888 425.051 94.2226 423.933C95.7299 421.874 97.1731 419.756 98.6483 417.667C99.1935 416.873 99.7066 416.078 100.22 415.284C100.861 414.284 101.535 413.313 102.144 412.283C102.817 411.136 103.491 409.989 104.196 408.871C104.71 408.017 105.159 407.135 105.608 406.282C106.666 404.311 107.66 402.31 108.654 400.31C110.482 396.662 112.214 392.955 113.978 389.248C117.89 380.599 121.675 371.92 124.914 363.035C125.844 360.446 126.71 357.857 127.544 355.239C127.383 355.239 127.223 355.18 127.095 355.151C126.517 355.033 125.94 354.915 125.363 354.798C124.016 354.474 122.733 354.092 121.45 353.65C118.724 352.709 116.191 351.415 113.721 350.002C112.503 349.326 111.348 348.531 110.194 347.796C109.039 347.06 107.885 346.296 106.762 345.501C104.196 343.707 101.631 341.912 99.0973 340.088C94.2867 336.675 89.6365 333.057 85.2429 329.203C84.1525 328.232 82.998 327.291 81.9397 326.29C80.6248 325.084 79.3099 323.849 77.995 322.642C76.0708 320.877 74.1787 319.053 72.3507 317.2C71.3565 316.2 70.3302 315.199 69.3681 314.14C68.1174 312.787 66.8987 311.463 65.6479 310.11C63.5954 307.903 61.7354 305.579 59.8112 303.284C59.0736 302.402 58.4001 301.49 57.6945 300.578C56.8286 299.46 55.9307 298.342 55.0968 297.195C53.3971 294.87 51.6653 292.546 50.0297 290.193C48.2659 287.663 46.502 285.133 44.8023 282.603C43.0705 280.014 41.3387 277.425 39.6389 274.806C37.9392 272.218 36.3037 269.599 34.7001 266.981C33.289 264.716 31.9741 262.391 30.6272 260.097C29.8575 258.802 29.2161 257.449 28.5105 256.125C27.9333 255.066 27.3561 253.978 26.8429 252.889C26.1053 251.389 25.3356 249.859 24.598 248.358C23.9245 246.976 23.2831 245.564 22.6417 244.181C21.391 241.474 20.1723 238.709 18.9216 235.973C18.4726 234.973 18.0556 233.943 17.6387 232.943C17.0615 231.56 16.4201 230.177 15.8749 228.795C14.8807 226.206 13.7903 223.617 12.8923 220.998C12.3471 219.41 11.7699 217.821 11.2247 216.203C10.7115 214.761 10.2946 213.261 9.84566 211.79C9.10805 209.437 8.40252 207.083 7.76111 204.729C7.28006 202.994 6.83107 201.258 6.35001 199.493C6.02931 198.316 5.77274 197.11 5.4841 195.933C5.1634 194.639 4.81065 193.315 4.55409 191.991C4.23338 190.196 3.88057 188.402 3.55987 186.637C3.33537 185.519 3.20713 184.401 3.04678 183.253C2.85436 181.871 2.59775 180.488 2.50154 179.076C2.34119 177.399 2.21291 175.693 2.05256 174.016C1.92428 172.751 1.89221 171.486 1.86014 170.191C1.82807 168.956 1.73188 167.72 1.73188 166.484C1.73188 164.631 1.73188 162.777 1.73188 160.924L1.60358 160.983Z" stroke="#303030" stroke-miterlimit="10"/>
<path d="M140.308 352.062C140.308 352.062 140.308 352.003 140.34 351.974C140.34 351.974 140.34 352.033 140.308 352.062Z" fill="#303030"/>
<path d="M112.342 358.24C112.759 361.829 111.444 365.389 110.065 368.801C101.182 391.072 89.7647 412.489 76.1028 432.612C73.4089 436.584 70.266 440.761 65.4234 442.203" stroke="#303030" stroke-miterlimit="10"/>
<path d="M573.898 213.673C575.758 182.694 560.781 153.187 546.189 125.18C541.892 116.913 537.53 108.587 531.725 101.114C526.017 93.7596 518.961 87.3756 511.521 81.4623C474.897 52.4254 427.048 34.9209 378.622 35.3622" stroke="#303030" stroke-miterlimit="10"/>
</svg>
