<svg width="206" height="173" viewBox="0 0 206 173" fill="none" xmlns="http://www.w3.org/2000/svg">
<g clip-path="url(#clip0_22_21779)">
<path d="M34.5847 133.259C34.5778 133.574 34.8314 133.838 35.147 133.845C35.4627 133.852 35.7277 133.599 35.7346 133.284C35.7416 132.969 35.488 132.705 35.1724 132.698C34.8567 132.691 34.5917 132.944 34.5847 133.259Z" fill="#529471"/>
<path d="M54.8652 15.9206C54.4819 15.9121 54.0986 15.9036 53.715 15.9064C53.1396 15.9162 52.5642 15.9259 51.9772 15.9467C51.661 15.9622 51.3968 16.1813 51.3896 16.5073C51.3824 16.8333 51.6357 17.1088 51.9518 17.0933C53.3064 17.0445 54.6599 17.0407 56.0122 17.0931C57.2969 17.144 58.5811 17.2174 59.865 17.3021C60.6982 17.3655 61.5202 17.4286 62.353 17.5145C62.6681 17.544 62.9341 17.2462 62.9406 16.9539C62.9441 16.7966 62.8909 16.6492 62.7804 16.5455C62.6702 16.4306 62.5359 16.3827 62.3783 16.3679C60.0259 16.1472 57.6612 15.9712 55.3051 15.9191C55.1585 15.9158 55.012 15.9126 54.8654 15.9094L54.8652 15.9206Z" fill="#529471"/>
<path d="M152.621 140.289C151.944 140.297 151.267 140.327 150.589 140.346C149.991 140.366 149.393 140.387 148.795 140.418C147.621 140.46 146.446 140.513 145.272 140.565C142.484 140.684 139.695 140.813 136.906 140.943C136.116 140.981 135.325 141.02 134.535 141.059C134.377 141.055 134.241 141.109 134.126 141.219C134.011 141.317 133.951 141.473 133.947 141.62C133.941 141.912 134.194 142.221 134.51 142.206C137.468 142.069 140.426 141.932 143.384 141.794C146.003 141.684 148.622 141.573 151.241 141.473C151.693 141.461 152.144 141.437 152.607 141.436C152.923 141.443 153.188 141.19 153.194 140.876C153.201 140.561 152.959 140.297 152.655 140.29C152.655 140.29 152.655 140.29 152.643 140.29L152.621 140.289Z" fill="#529471"/>
<path d="M152.624 145.238C151.361 145.244 150.086 145.26 148.811 145.277C147.57 145.295 146.317 145.323 145.076 145.341C143.926 145.349 142.764 145.368 141.613 145.377C139.797 145.381 137.97 145.386 136.154 145.391C135.838 145.384 135.573 145.637 135.566 145.951C135.559 146.266 135.812 146.542 136.128 146.537C139.129 146.536 142.14 146.535 145.141 146.489C147.624 146.443 150.117 146.408 152.599 146.384C152.915 146.391 153.18 146.139 153.187 145.824C153.194 145.509 152.951 145.245 152.636 145.238C152.636 145.238 152.636 145.238 152.624 145.238Z" fill="#529471"/>
<path d="M159.396 150.662C158.03 150.711 156.676 150.748 155.31 150.774C154.126 150.793 152.953 150.79 151.768 150.797C148.802 150.81 145.824 150.812 142.858 150.814C142.542 150.807 142.277 151.06 142.27 151.374C142.263 151.678 142.517 151.953 142.832 151.96C145.934 151.961 149.024 151.951 152.126 151.941C153.221 151.931 154.315 151.933 155.409 151.912C156.729 151.885 158.05 151.847 159.371 151.797C159.687 151.782 159.951 151.563 159.958 151.237C159.965 150.945 159.723 150.658 159.419 150.651L159.396 150.651L159.396 150.662Z" fill="#529471"/>
<path d="M164.118 155.917C161.603 155.918 159.076 155.93 156.561 155.919C154.655 155.911 152.738 155.902 150.832 155.882C150.517 155.875 150.252 156.128 150.245 156.443C150.238 156.758 150.491 157.022 150.807 157.029C153.75 157.049 156.682 157.069 159.626 157.066C161.115 157.066 162.604 157.065 164.093 157.064C164.408 157.071 164.673 156.818 164.68 156.503C164.687 156.2 164.434 155.924 164.129 155.918C164.129 155.918 164.129 155.918 164.118 155.917Z" fill="#529471"/>
<path d="M166.104 161.483C163.925 161.593 161.755 161.792 159.585 161.969C159.427 161.988 159.291 162.019 159.176 162.129C159.072 162.228 159.001 162.383 158.998 162.53C158.995 162.676 159.047 162.834 159.158 162.938C159.257 163.041 159.413 163.124 159.56 163.116C161.73 162.939 163.911 162.739 166.079 162.63C166.237 162.633 166.373 162.58 166.488 162.47C166.592 162.36 166.663 162.216 166.666 162.069C166.673 161.788 166.431 161.491 166.138 161.484C166.138 161.484 166.115 161.484 166.104 161.483Z" fill="#529471"/>
<path d="M108.147 4.69423C108.305 4.69772 108.463 4.70122 108.62 4.70471C108.97 4.71244 109.331 4.72041 109.68 4.72814C110.3 4.74186 110.92 4.75557 111.54 4.76928C112.679 4.79446 113.817 4.83089 114.956 4.86731C116.004 4.8905 117.052 4.93617 118.089 4.97035C118.596 4.98157 119.103 5.01527 119.61 5.03773C120.05 5.04745 120.5 5.06867 120.939 5.10087C123.136 5.23942 125.332 5.38921 127.515 5.62868C128.19 5.69985 128.853 5.782 129.529 5.85317C130.024 5.9091 130.529 5.98777 131.024 6.05495C132.171 6.21527 133.307 6.38659 134.442 6.55791C136.476 6.87282 138.511 7.19898 140.534 7.52489C140.5 7.52414 140.466 7.52339 140.421 7.51115C140.466 7.51215 140.511 7.52439 140.556 7.53663C140.59 7.53738 140.612 7.53787 140.646 7.54986C140.623 7.54936 140.59 7.54862 140.567 7.54812C142.13 7.78512 143.703 8.02236 145.266 8.2706C145.962 8.38723 146.659 8.49262 147.356 8.62049C147.895 8.72238 148.434 8.83552 148.962 8.93717C149.22 8.98787 149.478 9.03857 149.737 9.08927C150.533 9.27559 151.33 9.43943 152.116 9.63674C152.867 9.82206 153.619 9.99614 154.37 10.1927C155.806 10.5731 157.252 10.9537 158.663 11.4123C159.313 11.6291 159.962 11.8347 160.612 12.0402C160.746 12.0882 160.88 12.1362 161.014 12.1953C161.35 12.3265 161.686 12.4464 162.01 12.5773C162.435 12.7441 162.849 12.8995 163.262 13.0773C163.832 13.3261 164.39 13.5634 164.96 13.8122C165.519 14.0494 166.066 14.3202 166.613 14.5685C166.992 14.7456 167.372 14.9227 167.751 15.111C168.276 15.37 168.8 15.6178 169.313 15.8878C169.848 16.1696 170.383 16.4514 170.918 16.7444C172.746 17.7183 174.54 18.7476 176.368 19.7215C176.836 19.9681 177.304 20.2258 177.784 20.4726C178.307 20.7541 178.843 21.0247 179.366 21.3174C179.924 21.6221 180.469 21.9379 181.027 22.2426C181.383 22.4417 181.728 22.6518 182.073 22.8731C182.718 23.281 183.364 23.6664 183.986 24.1075C185.118 24.9198 186.227 25.7766 187.255 26.7103C188.118 27.4942 188.956 28.3337 189.703 29.2387C190.066 29.6854 190.451 30.1213 190.802 30.5676C191.186 31.0597 191.558 31.5516 191.942 32.0437C192.26 32.4556 192.556 32.867 192.862 33.2899C193.147 33.6786 193.431 34.0673 193.704 34.467C193.923 34.7755 194.131 35.0837 194.349 35.3922C194.47 35.5523 194.59 35.7237 194.699 35.8948C195.048 36.4423 195.386 36.9896 195.735 37.526C195.974 37.9024 196.18 38.2893 196.397 38.6653C196.636 39.0867 196.875 39.5081 197.102 39.9405C197.373 40.4526 197.655 40.9537 197.915 41.4655C198.379 42.3868 198.855 43.3083 199.297 44.2403C199.523 44.7289 199.761 45.2065 199.975 45.6949C200.233 46.2966 200.49 46.8984 200.747 47.5002C200.973 48.0337 201.152 48.5888 201.354 49.1331C201.514 49.5528 201.64 49.9829 201.777 50.4133C201.935 50.9117 202.094 51.3988 202.218 51.9076C202.311 52.2584 202.394 52.6201 202.487 52.982C202.539 53.1969 202.602 53.4119 202.653 53.6268C202.776 54.2255 202.898 54.8243 203.008 55.4228C203.089 55.8408 203.159 56.2697 203.229 56.6873C203.308 57.1839 203.399 57.6696 203.455 58.1657C203.532 58.7859 203.597 59.3947 203.674 60.0149C203.74 60.6125 203.771 61.2205 203.814 61.8175C203.833 62.0204 203.85 62.2344 203.857 62.437C203.852 62.6506 203.859 62.8645 203.866 63.0783C203.876 63.6296 203.897 64.1924 203.885 64.7545C203.87 65.4064 203.856 66.0472 203.831 66.6989C203.81 67.6319 203.755 68.5642 203.69 69.485C203.644 70.0576 203.62 70.6306 203.562 71.2029C203.503 71.8314 203.444 72.4599 203.373 73.0882C203.317 73.6043 203.238 74.1199 203.17 74.6357C203.104 75.0729 203.049 75.5103 202.972 75.9472C202.855 76.6194 202.739 77.2917 202.611 77.9636C202.521 78.479 202.386 78.9933 202.284 79.5084C202.184 79.9673 202.083 80.4262 201.972 80.8736C201.835 81.4329 201.71 82.0037 201.551 82.5626C201.292 83.5578 201.033 84.5643 200.741 85.5475C200.583 86.0501 200.447 86.5645 200.267 87.0666C200.099 87.5465 199.93 88.0376 199.75 88.5172C199.308 89.6546 198.854 90.7805 198.4 91.9176C198.21 92.3857 198.007 92.8536 197.806 93.3103C197.616 93.7447 197.437 94.1793 197.236 94.6023C196.751 95.6262 196.265 96.6502 195.725 97.6504C194.737 99.4843 193.726 101.318 192.66 103.094C191.571 104.903 190.405 106.665 189.182 108.393C188.576 109.256 187.96 110.109 187.332 110.95C186.693 111.801 186.065 112.665 185.392 113.493C184.998 113.991 184.615 114.488 184.198 114.974C183.839 115.393 183.48 115.824 183.121 116.244C182.437 117.061 181.698 117.832 180.959 118.603C180.786 118.79 180.591 118.966 180.406 119.153C180.233 119.329 180.06 119.516 179.875 119.681C179.507 120.01 179.161 120.362 178.782 120.68C177.989 121.36 177.196 122.028 176.38 122.674C174.693 123.986 172.995 125.298 171.144 126.393C170.629 126.697 170.115 127.023 169.589 127.315C169.087 127.585 168.596 127.855 168.094 128.136C167.614 128.396 167.113 128.621 166.623 128.857C166.212 129.051 165.802 129.244 165.392 129.426C163.205 130.413 161.007 131.376 158.819 132.374C158.614 132.47 158.41 132.511 158.175 132.438C157.973 132.377 157.796 132.239 157.687 132.045C157.579 131.851 157.55 131.615 157.622 131.403C157.683 131.213 157.823 131.002 158.017 130.916C159.498 130.241 160.979 129.576 162.459 128.923C163.644 128.398 164.829 127.873 165.991 127.314C166.333 127.153 166.686 127.003 167.006 126.83C167.303 126.668 167.6 126.506 167.896 126.344C168.193 126.182 168.49 126.031 168.787 125.857C169.084 125.684 169.393 125.5 169.69 125.326C170.307 124.958 170.913 124.589 171.519 124.197C172 123.904 172.447 123.565 172.905 123.249C174.751 121.873 176.565 120.462 178.268 118.903C178.74 118.475 179.179 118.035 179.628 117.595C180.044 117.177 180.448 116.747 180.852 116.317C181.025 116.141 181.188 115.942 181.35 115.755C181.546 115.523 181.754 115.302 181.951 115.071C182.31 114.64 182.669 114.22 183.028 113.79C183.655 113.005 184.282 112.209 184.908 111.413C185.524 110.617 186.117 109.798 186.699 108.99C187.827 107.44 188.934 105.857 189.973 104.249C190.534 103.373 191.083 102.508 191.599 101.608C192.15 100.653 192.69 99.6977 193.231 98.7312C193.688 97.9203 194.135 97.0979 194.56 96.2638C194.784 95.8189 195.019 95.3855 195.232 94.9403C195.445 94.4952 195.646 94.061 195.859 93.6159C196.144 92.9586 196.452 92.3019 196.715 91.6329C197.037 90.8527 197.358 90.0726 197.658 89.2919C197.837 88.8348 198.027 88.3891 198.184 87.9315C198.328 87.5298 198.472 87.1281 198.617 86.7264C198.869 86.0122 199.077 85.2745 199.296 84.5483C199.394 84.2243 199.48 83.8889 199.567 83.5534C199.69 83.0837 199.813 82.6253 199.936 82.1557C200.145 81.3843 200.32 80.5897 200.518 79.818C200.617 79.4266 200.682 79.0344 200.769 78.6427C200.857 78.2622 200.944 77.8818 201.02 77.4898C201.15 76.7391 201.279 75.9997 201.42 75.2493C201.513 74.5991 201.595 73.9373 201.689 73.2871C201.77 72.6478 201.818 72.0078 201.878 71.3681C201.995 70.156 202.055 68.9427 202.127 67.7297C202.151 67.1454 202.176 66.5611 202.2 65.9768C202.213 65.3698 202.238 64.763 202.24 64.167C202.228 63.6831 202.227 63.1995 202.227 62.7159C202.231 62.5473 202.223 62.3896 202.215 62.2208C202.174 61.5563 202.12 60.9028 202.079 60.2383C202.012 59.6745 201.945 59.122 201.879 58.5582C201.832 58.1298 201.751 57.7006 201.682 57.2717C201.613 56.8203 201.544 56.3801 201.463 55.9285C201.342 55.3185 201.22 54.7085 201.098 54.0985C201.057 53.9176 201.016 53.7255 200.963 53.5444C200.87 53.1824 200.776 52.8205 200.694 52.4588C200.591 52.0291 200.454 51.6099 200.328 51.1798C200.18 50.7266 200.055 50.2628 199.896 49.8094C199.704 49.2878 199.512 48.7775 199.332 48.2561C199.193 47.9157 199.042 47.5862 198.903 47.2457C198.775 46.9392 198.647 46.6102 198.507 46.3034C198.335 45.9285 198.162 45.5648 197.99 45.1898C197.839 44.8828 197.711 44.5651 197.548 44.2578C197.213 43.5869 196.867 42.9157 196.532 42.256C196.208 41.6077 195.85 40.97 195.515 40.3328C195.352 40.0255 195.178 39.7405 195.004 39.433C194.842 39.137 194.69 38.8412 194.505 38.556C194.287 38.2137 194.069 37.8715 193.851 37.518C193.666 37.2328 193.492 36.9253 193.306 36.6513C192.869 36.023 192.421 35.3833 191.984 34.7551C191.623 34.2297 191.228 33.7261 190.856 33.2118C190.505 32.7542 190.143 32.2963 189.792 31.8387C189.54 31.5182 189.276 31.2087 189.013 30.888C188.562 30.3494 188.123 29.8111 187.638 29.3055C186.745 28.3748 185.805 27.5105 184.797 26.7009C184.032 26.088 183.244 25.4857 182.41 24.9724C181.92 24.6692 181.442 24.3662 180.964 24.0632C180.196 23.5851 179.404 23.1739 178.613 22.7291C177.9 22.3309 177.175 21.9662 176.462 21.5793C175.593 21.1102 174.712 20.6521 173.843 20.1718C173.018 19.7149 172.193 19.2693 171.369 18.8125C170.578 18.3788 169.786 17.9564 168.983 17.5338C168.192 17.1114 167.4 16.7228 166.596 16.3339C166.273 16.1693 165.949 16.0271 165.614 15.8848C165.223 15.7074 164.832 15.5301 164.452 15.353C163.693 15.0213 162.945 14.6786 162.184 14.3806C161.334 14.0581 160.496 13.7247 159.634 13.4357C158.715 13.1342 157.808 12.8442 156.889 12.5765C155.959 12.3085 155.04 12.052 154.098 11.8062C153.716 11.7078 153.346 11.6209 152.965 11.5225C152.516 11.4113 152.079 11.3004 151.63 11.1893C150.777 10.9905 149.925 10.7692 149.071 10.6041C148.454 10.478 147.836 10.3631 147.23 10.2372C146.949 10.186 146.68 10.1238 146.399 10.0839C145.477 9.92854 144.544 9.78419 143.623 9.62885C140.588 9.16809 137.564 8.69634 134.529 8.2131C133.169 8.00307 131.809 7.80429 130.437 7.61649C129.301 7.45642 128.154 7.34106 127.017 7.2147C125.926 7.08935 124.822 7.01995 123.73 6.92832C123.257 6.88412 122.795 6.86266 122.322 6.82971C121.827 6.79625 121.343 6.75181 120.847 6.7296C119.833 6.68467 118.808 6.62826 117.793 6.59458C115.618 6.52398 113.443 6.44214 111.267 6.39402C110.163 6.36958 109.047 6.32242 107.942 6.32046L105.709 6.30482C105.382 6.29759 105.055 6.29036 104.728 6.30561C104.005 6.33462 103.283 6.36363 102.56 6.39264C102.097 6.4049 101.623 6.41691 101.16 6.45165C100.019 6.53888 98.8783 6.61487 97.7259 6.70185C97.2627 6.73659 96.799 6.79381 96.3358 6.82856C95.7143 6.88229 95.0925 6.94727 94.471 7.001C94.4146 6.99975 94.3467 7.0095 94.2901 7.01949C94.2335 7.02949 94.1881 7.03973 94.1318 7.03848C94.0754 7.03724 94.0188 7.04723 93.9622 7.05723C93.8038 7.07622 93.6455 7.09521 93.4872 7.1142C93.3742 7.12295 93.2723 7.14319 93.1705 7.15219C93.1593 7.15194 93.1367 7.15144 93.1254 7.15119C93.0688 7.16118 93.0122 7.17118 92.9558 7.16993C92.8769 7.16819 92.8088 7.18917 92.7296 7.19867C92.6167 7.20742 92.4922 7.22716 92.3792 7.2359L92.3566 7.2354C92.2885 7.25639 92.2206 7.26614 92.1417 7.26439C91.9042 7.29288 91.678 7.32162 91.4407 7.33886C91.3844 7.33762 91.3275 7.35885 91.2711 7.35761C91.203 7.37859 91.1354 7.3771 91.0677 7.3756C89.5178 7.58875 87.9797 7.77966 86.4403 8.02678C85.8177 8.12548 85.1837 8.23517 84.5612 8.33387C84.2668 8.38359 83.9614 8.42183 83.6668 8.48279C82.8401 8.63321 82.0245 8.79512 81.1978 8.94553C80.5635 9.06646 79.9179 9.18715 79.2834 9.31932C78.3427 9.52345 77.391 9.71609 76.4391 9.91997C76.1104 9.99143 75.7815 10.0741 75.4526 10.1568C74.9423 10.2805 74.4208 10.4039 73.9105 10.5276C73.2867 10.6825 72.6624 10.8599 72.0497 11.0263C71.0737 11.2971 70.1093 11.5569 69.1443 11.8393C68.0544 12.1638 66.9534 12.4769 65.8742 12.8241C63.6026 13.5387 61.3423 14.2535 59.0818 14.9795C57.2075 15.5791 55.3329 16.1899 53.4687 16.846C52.4572 17.1948 51.4461 17.5211 50.4561 17.9153C49.3639 18.341 48.2715 18.7779 47.1793 19.2037C45.6415 19.8894 44.1042 20.5527 42.5992 21.2842C41.858 21.6502 41.0947 21.9932 40.364 22.3932C39.8502 22.6742 39.3364 22.9553 38.8227 23.2363C38.4915 23.4202 38.1493 23.5926 37.8295 23.7767C36.9838 24.2754 36.1494 24.7742 35.3037 25.2729C34.6522 25.6634 34.0117 26.0653 33.3712 26.4673C32.7194 26.869 32.0676 27.2707 31.4379 27.6954C30.6709 28.207 29.9036 28.7299 29.1366 29.2415C28.437 29.7659 27.7377 30.279 27.0381 30.8034C26.8432 30.9453 26.6483 31.0872 26.4644 31.2406C26.1313 31.5144 25.7979 31.7994 25.4648 32.0732C24.9936 32.4677 24.534 32.8511 24.0628 33.2456C23.902 33.377 23.7414 33.4972 23.5916 33.6401C22.8778 34.2991 22.1637 34.9693 21.4385 35.6281C20.9088 36.1225 20.4013 36.6286 19.8938 37.1347L18.7867 38.2349C18.6136 38.411 18.4516 38.5986 18.2898 38.775C17.7467 39.3591 17.1925 39.9429 16.6827 40.5502C16.1497 41.1907 15.617 41.82 15.0953 42.4607C14.5029 43.2349 13.8885 43.9861 13.3185 44.772C12.923 45.3143 12.5275 45.8567 12.1433 46.3993C11.9104 46.7315 11.6887 47.064 11.4556 47.4075C11.2224 47.751 10.989 48.1057 10.7558 48.4492C10.6859 48.5489 10.6161 48.6486 10.5575 48.7485C10.2178 49.3145 9.88951 49.8809 9.5499 50.4469C9.0698 51.2461 8.65632 52.0917 8.23183 52.9258C7.97038 53.5273 7.69768 54.1286 7.43599 54.7414C7.24567 55.1871 7.08894 55.6447 6.92092 56.1021C6.78821 56.4928 6.64421 56.8833 6.51175 57.2627C6.46342 57.4078 6.40382 57.5527 6.36677 57.6981C6.15972 58.3908 5.96368 59.095 5.75662 59.7878C5.58561 60.38 5.45921 60.9958 5.31075 61.5886C5.18658 62.1032 5.08495 62.6183 4.97205 63.1332C4.85841 63.6817 4.74477 64.2303 4.65367 64.7794C4.56108 65.3959 4.45722 66.0122 4.35336 66.6284C4.26881 67.3913 4.17324 68.1428 4.08869 68.9057C4.06018 69.1749 4.04271 69.4557 4.02547 69.7253C3.99248 70.1969 3.94845 70.657 3.91546 71.1287C3.86697 71.7912 3.85207 72.4656 3.82613 73.1286C3.80118 73.7466 3.79878 74.3651 3.78511 74.9834C3.77119 75.6129 3.76854 76.2426 3.77741 76.8614C3.78554 77.5139 3.78239 78.1661 3.82434 78.8194C3.84747 79.3035 3.88187 79.7879 3.905 80.272C3.91155 80.4858 3.91784 80.7109 3.94693 80.9252C4.01118 81.5902 4.07568 82.2439 4.1512 82.9091C4.2302 83.417 4.32072 83.9138 4.39997 84.4105C4.41903 84.5683 4.4381 84.7262 4.47996 84.8733C4.52158 85.0317 4.55216 85.1786 4.59378 85.337C4.71787 85.8458 4.84221 86.3434 4.96631 86.8523C4.98662 86.9539 5.02947 87.0561 5.06106 87.158C5.14528 87.4298 5.24052 87.7131 5.32475 87.9849C5.44078 88.3473 5.54533 88.7208 5.68393 89.0837C5.87541 89.6053 6.05563 90.1266 6.24736 90.637C6.50276 91.3287 6.78094 92.0096 7.04761 92.7016C7.37994 93.4849 7.70074 94.2793 8.06711 95.0522C8.22876 95.3932 8.3904 95.7341 8.55205 96.0751C8.61646 96.2227 8.68086 96.3704 8.75655 96.5182C8.97307 96.9279 9.18982 97.3263 9.40634 97.736C9.57951 98.066 9.76394 98.3962 9.94863 98.7152C10.2205 99.1711 10.4927 99.6157 10.7645 100.072C10.8407 100.197 10.9172 100.311 11.0049 100.426C11.1687 100.665 11.3324 100.916 11.5075 101.156C11.7478 101.51 11.9881 101.864 12.2285 102.218C12.6775 102.824 13.1378 103.431 13.5866 104.048C13.9479 104.539 14.332 105.02 14.7162 105.501C15.6596 106.703 16.637 107.894 17.6032 109.085C18.3828 110.047 19.1738 110.998 19.9762 111.949C20.4818 112.545 20.9757 113.164 21.5041 113.749C22.0213 114.334 22.5385 114.919 23.0669 115.504C24.5307 117.145 26.0519 118.742 27.5618 120.338C28.3002 121.12 29.0499 121.901 29.7996 122.682C30.5603 123.475 31.3327 124.246 32.105 125.028C32.8549 125.798 33.6509 126.524 34.4239 127.272C34.7221 127.56 35.0433 127.826 35.3415 128.113C35.8503 128.563 36.3477 129.024 36.8566 129.474C37.6416 130.189 38.4611 130.87 39.2692 131.563C39.9885 132.186 40.7309 132.787 41.4618 133.4C42.127 133.92 42.7807 134.452 43.4459 134.973C44.0445 135.447 44.6666 135.877 45.2772 136.318C45.5545 136.527 45.8204 136.746 46.1095 136.933C46.3763 137.107 46.6432 137.282 46.91 137.456C47.377 137.759 47.8328 138.062 48.2998 138.364C48.4777 138.481 48.644 138.608 48.8335 138.714C49.6465 139.181 50.4707 139.65 51.2838 140.117C51.8853 140.457 52.4989 140.763 53.1235 141.08C53.7481 141.398 54.3614 141.715 54.9978 142.01C55.7013 142.33 56.4046 142.66 57.0968 142.979C57.5327 143.157 57.9571 143.347 58.3818 143.525C58.7842 143.691 59.1747 143.88 59.5776 144.023C60.4277 144.346 61.2772 144.691 62.1388 145.002C63.8848 145.615 65.6305 146.238 67.4008 146.772C67.9274 146.93 68.454 147.088 68.9804 147.257C69.406 147.39 69.8437 147.49 70.2809 147.612C70.6735 147.71 71.0543 147.831 71.4471 147.919C71.9632 148.043 72.4793 148.166 72.9956 148.279C74.7684 148.701 76.5661 149.01 78.3526 149.32C79.8701 149.556 81.3988 149.792 82.9287 149.972C85.0439 150.21 87.1591 150.448 89.276 150.607C90.4469 150.701 91.6071 150.771 92.7785 150.842C93.2518 150.864 93.725 150.886 94.1982 150.907C94.7281 150.919 95.2685 150.965 95.7986 150.965C96.8926 150.967 97.9863 150.98 99.0811 150.948C100.232 150.917 101.395 150.875 102.547 150.822C103.506 150.776 104.466 150.718 105.426 150.65C106.545 150.573 107.652 150.474 108.76 150.375C109.563 150.28 110.354 150.196 111.146 150.079C112.051 149.953 112.956 149.826 113.862 149.7C115.593 149.446 117.324 149.203 119.034 148.881C120.744 148.559 122.445 148.158 124.136 147.701C125.747 147.264 127.316 146.714 128.863 146.107C129.535 145.829 130.195 145.552 130.855 145.263C131.072 145.166 131.265 145.125 131.5 145.198C131.701 145.259 131.879 145.398 131.987 145.591C132.096 145.785 132.124 146.022 132.052 146.234C131.992 146.424 131.852 146.634 131.658 146.72C130.394 147.277 129.118 147.822 127.811 148.277C127.152 148.51 126.492 148.754 125.822 148.953C125.175 149.141 124.528 149.329 123.882 149.494C121.42 150.16 118.894 150.633 116.37 151.015C114.31 151.33 112.251 151.633 110.193 151.88C109.062 152.012 107.92 152.144 106.79 152.221C105.717 152.298 104.644 152.376 103.571 152.431C101.482 152.542 99.3933 152.642 97.307 152.629C96.7658 152.617 96.2127 152.639 95.6606 152.615C94.9954 152.601 94.3308 152.564 93.6659 152.538C92.7305 152.506 91.7955 152.451 90.8611 152.374C88.7554 152.215 86.6613 152.045 84.5687 151.808C83.9499 151.738 83.3308 151.679 82.7123 151.598C82.1163 151.517 81.5316 151.437 80.9356 151.356C80.4521 151.289 79.9686 151.222 79.4966 151.145C78.9569 151.065 78.4286 150.986 77.8892 150.895C76.7881 150.702 75.6871 150.509 74.5865 150.294C74.0812 150.193 73.5756 150.103 73.0708 149.979C72.4312 149.83 71.7916 149.681 71.152 149.532C70.692 149.42 70.2436 149.298 69.7951 149.176C69.3467 149.053 68.8867 148.942 68.4385 148.808C67.3965 148.493 66.3546 148.177 65.3131 147.839C64.2048 147.466 63.1077 147.093 62.0109 146.709C61.026 146.361 60.0532 145.98 59.0691 145.598C58.5435 145.395 58.0298 145.159 57.5157 144.945C57.1023 144.767 56.6774 144.6 56.2643 144.411C55.639 144.128 55.0139 143.833 54.3885 143.549C54.0648 143.395 53.7522 143.254 53.4285 143.1C52.748 142.759 52.0678 142.407 51.3873 142.065C51.0862 141.913 50.7963 141.76 50.5066 141.596C49.8272 141.21 49.1477 140.824 48.4682 140.438C48.1899 140.274 47.9113 140.122 47.6334 139.935C46.9998 139.517 46.3659 139.109 45.7323 138.69C45.4544 138.504 45.1876 138.329 44.9212 138.132C44.011 137.471 43.0895 136.81 42.2138 136.115C41.3048 135.398 40.4071 134.681 39.5211 133.942C38.6685 133.225 37.8158 132.509 36.986 131.782C36.1669 131.078 35.3594 130.363 34.5633 129.637C34.1429 129.268 33.7112 128.898 33.3138 128.507C32.9382 128.15 32.5629 127.782 32.1873 127.425C31.812 127.057 31.4138 126.699 31.0498 126.331C30.6306 125.906 30.2224 125.492 29.8032 125.067C29.031 124.285 28.2703 123.492 27.5208 122.699C25.9997 121.102 24.4787 119.494 22.9809 117.864C20.0177 114.661 17.2729 111.271 14.5167 107.892C14.22 107.537 13.9463 107.16 13.6497 106.805C13.3096 106.37 12.9581 105.946 12.6296 105.5C12.268 105.02 11.9067 104.528 11.5451 104.048C11.2822 103.693 11.0079 103.35 10.7565 102.984C10.3634 102.402 9.9702 101.82 9.57704 101.238C9.34775 100.895 9.13024 100.53 8.91248 100.177C8.65161 99.7325 8.36794 99.2988 8.13014 98.8325C7.96799 98.514 7.79433 98.2065 7.63221 97.888C7.53497 97.6946 7.42621 97.5123 7.32898 97.3189C7.05982 96.7394 6.79065 96.1599 6.51023 95.5801C6.30548 95.1482 6.12378 94.6943 5.94182 94.2517C5.73807 93.7748 5.5456 93.2982 5.35337 92.8103C5.15036 92.2997 4.94709 91.8004 4.75537 91.29C4.5318 90.689 4.31976 90.077 4.09619 89.476C3.94756 89.0566 3.82174 88.6264 3.68439 88.2073C3.58964 87.9015 3.49487 87.5957 3.39988 87.3012C3.347 87.1426 3.31691 86.9732 3.2753 86.8149C3.19307 86.4531 3.09931 86.1024 3.00581 85.7405C2.96421 85.5821 2.91156 85.4122 2.89251 85.2543C2.79369 84.6224 2.68336 84.0013 2.58455 83.3693C2.5048 82.8952 2.48167 82.4111 2.43574 81.9377C2.38982 81.4644 2.33237 81.002 2.30899 80.5291C2.26729 79.8646 2.23712 79.1892 2.19542 78.5247C2.17278 78.0181 2.1727 77.512 2.17261 77.0059C2.17054 76.5897 2.15719 76.1733 2.16614 75.7686C2.1813 75.0829 2.18495 74.4082 2.18884 73.7222C2.19903 73.2613 2.23152 72.8122 2.24172 72.3513C2.25216 71.8791 2.27361 71.4185 2.31787 70.9471C2.36636 70.2846 2.42614 69.6224 2.47488 68.9487C2.52088 68.3986 2.60045 67.8605 2.66875 67.3222C2.72354 66.8848 2.77809 66.4586 2.84415 66.0215C2.94925 65.349 3.05436 64.6765 3.17074 64.0043C3.25006 63.4775 3.37423 62.9629 3.48738 62.4368C3.57649 61.9776 3.6766 61.53 3.78801 61.0826C3.87488 60.7246 3.96175 60.3666 4.04862 60.0087C4.09794 59.8185 4.13624 59.617 4.18556 59.4269C4.46573 58.4883 4.71233 57.5378 5.03734 56.6115C5.26595 55.9643 5.49482 55.3058 5.72342 54.6585C5.75948 54.5581 5.80681 54.4579 5.85439 54.3465C5.98536 54.0345 6.12762 53.7228 6.25834 53.422C6.4126 53.0768 6.55557 52.7313 6.70983 52.386C6.76919 52.2524 6.82878 52.1075 6.89916 51.9853C7.19368 51.4183 7.49947 50.8515 7.79397 50.2844C8.00584 49.8842 8.24001 49.4957 8.47418 49.1073C8.66152 48.7965 8.84912 48.4745 9.03671 48.1525C9.10708 48.0304 9.17769 47.897 9.25934 47.775C9.84289 46.8882 10.4265 46.0014 11.0434 45.1378C11.4038 44.6509 11.7421 44.1411 12.1138 43.6544C12.4504 43.2232 12.7873 42.7808 13.1239 42.3497C13.4142 41.9737 13.7047 41.5865 14.0061 41.222C14.4461 40.7031 14.8752 40.1728 15.3153 39.6539C16.0106 38.8146 16.7612 38.0214 17.4894 37.2277C17.7784 36.908 18.0895 36.6112 18.3893 36.3142C18.8507 35.852 19.3118 35.4011 19.7619 34.9387C20.0735 34.6194 20.4182 34.3346 20.7408 34.0269C21.259 33.5435 21.7886 33.0603 22.3068 32.5769C22.56 32.3464 22.813 32.127 23.0773 31.9079C23.6404 31.4368 24.215 30.9546 24.7781 30.4835C25.0539 30.2534 25.3299 30.0121 25.6167 29.7935C26.1673 29.3783 26.7289 28.9746 27.2794 28.5594C27.6464 28.2863 28.0138 27.9908 28.4031 27.7295C28.9068 27.392 29.4221 27.0435 29.9258 26.706C30.3494 26.4229 30.762 26.1284 31.1853 25.8566C31.6542 25.5633 32.1344 25.2703 32.6036 24.9657C34.3991 23.847 36.2054 22.7511 38.0551 21.7348C38.6488 21.4105 39.2424 21.0863 39.8361 20.762C40.2013 20.5676 40.5773 20.396 40.9536 20.2131C41.5352 19.9223 42.1279 19.643 42.7096 19.3522C43.063 19.1801 43.4273 19.0307 43.7917 18.8701C44.5094 18.5485 45.2271 18.227 45.9448 17.9055C46.2296 17.7768 46.5142 17.6594 46.7987 17.542C48.0049 17.0626 49.2108 16.5944 50.417 16.1149C50.8153 15.9551 51.2354 15.8294 51.6332 15.692C52.3266 15.4486 53.0085 15.2163 53.7019 14.973C54.6906 14.6349 55.6791 14.3081 56.6788 13.9816C58.5534 13.3708 60.4282 12.7487 62.3022 12.1603C63.4039 11.8135 64.5059 11.4555 65.6074 11.12C66.8223 10.7532 68.037 10.3977 69.252 10.0309C70.2966 9.71664 71.3515 9.44756 72.3956 9.15574C72.7473 9.0623 73.088 8.95737 73.4395 8.87517C74.1083 8.72126 74.7662 8.55586 75.435 8.40195C76.4894 8.15535 77.5431 7.94248 78.6082 7.71861C79.5942 7.50423 80.5908 7.32383 81.5876 7.13219C82.154 7.02101 82.7201 6.92106 83.2865 6.80987C83.7056 6.72917 84.1355 6.6712 84.5544 6.60173C85.5957 6.43357 86.6261 6.25392 87.6667 6.11948C88.7868 5.96431 89.9071 5.79789 91.0376 5.67669C91.1058 5.6557 91.1849 5.6462 91.2526 5.6477C91.5126 5.61971 91.7839 5.59197 92.0439 5.56398C92.1118 5.55424 92.1684 5.54424 92.2363 5.5345C92.2929 5.5245 92.3496 5.51451 92.3947 5.51551C92.3947 5.51551 92.4059 5.51576 92.4172 5.516C92.553 5.49651 92.6885 5.48826 92.8356 5.46902C92.9035 5.45928 92.9713 5.44953 93.0392 5.43979C93.0956 5.44103 93.1412 5.41955 93.1976 5.4208C93.3784 5.4023 93.5593 5.38381 93.7402 5.36532C93.8191 5.36706 93.8985 5.34633 93.9777 5.33683C94.1365 5.29535 94.3169 5.29934 94.4752 5.28035C94.5882 5.2716 94.7124 5.26311 94.8257 5.24312C95.8994 5.14315 96.9736 5.0207 98.058 4.94347C98.8149 4.89272 99.5719 4.83074 100.329 4.78C100.668 4.75375 101.007 4.72751 101.345 4.71251C102.553 4.6605 103.761 4.61973 104.98 4.57921C105.138 4.5827 105.307 4.58644 105.465 4.58993C105.814 4.59766 106.164 4.59415 106.514 4.59064C107.077 4.6031 107.653 4.59333 108.217 4.59456L108.147 4.69423ZM91.0332 7.40857C91.0332 7.40857 91.0106 7.40808 90.9993 7.40783C91.0106 7.40808 91.0219 7.40833 91.0444 7.40882L91.0332 7.40857ZM182.959 113.878C182.959 113.878 182.924 113.922 182.901 113.944C182.924 113.922 182.936 113.9 182.959 113.878ZM140.556 7.54787C140.556 7.54787 140.544 7.54762 140.533 7.54737C140.533 7.54737 140.556 7.54787 140.567 7.54812L140.556 7.54787Z" fill="#529471"/>
<path d="M130.275 141.943C128.937 142.768 127.578 143.525 126.208 144.271C125.808 144.487 125.662 145.001 125.89 145.4C126.106 145.798 126.622 145.933 127.022 145.717C128.403 144.972 129.762 144.203 131.1 143.389C131.489 143.151 131.646 142.67 131.418 142.261C131.277 141.999 130.988 141.835 130.695 141.828C130.559 141.825 130.412 141.856 130.286 141.932L130.275 141.943Z" fill="#529471"/>
<path d="M160.443 129.812C160.607 129.557 160.892 129.417 161.174 129.423C161.388 129.428 161.589 129.511 161.755 129.672C161.92 129.844 162.006 130.026 162.08 130.253C162.101 130.321 162.122 130.389 162.143 130.457C162.185 130.604 162.227 130.751 162.269 130.909C162.342 131.17 162.415 131.43 162.477 131.69C162.644 132.29 162.8 132.889 162.967 133.489C163.281 134.632 163.605 135.786 163.952 136.919C165.015 140.339 166.272 143.684 167.575 147.019C168.152 148.449 168.729 149.879 169.352 151.287C169.685 152.06 170.018 152.832 170.373 153.593C170.535 153.923 170.674 154.263 170.847 154.593C171.074 155.037 171.301 155.481 171.54 155.913C171.745 156.311 171.974 156.688 172.191 157.075C172.364 157.382 172.549 157.69 172.723 157.998C173.212 158.818 173.702 159.627 174.226 160.426C174.509 160.86 174.782 161.305 175.065 161.738C175.305 162.115 175.568 162.48 175.83 162.857C176.311 163.565 176.814 164.262 177.317 164.971C178.084 166 178.863 167.007 179.652 168.025C179.839 168.266 180.036 168.517 180.211 168.758C180.364 168.963 180.507 169.169 180.649 169.375C180.747 169.512 180.845 169.66 180.91 169.808C181.006 170.057 181.103 170.262 181.086 170.531C181.08 170.79 180.963 170.99 180.767 171.165C180.456 171.44 180.016 171.475 179.621 171.455C178.957 171.407 178.294 171.313 177.642 171.209C176.743 171.065 175.856 170.866 174.969 170.677C174.576 170.59 174.183 170.502 173.791 170.393C173.365 170.282 172.928 170.171 172.502 170.049C172.065 169.916 171.627 169.805 171.191 169.66C170.698 169.503 170.217 169.335 169.724 169.178C168.85 168.889 167.989 168.566 167.127 168.254C166.344 167.967 165.561 167.691 164.789 167.382C163.884 167.013 162.99 166.645 162.084 166.276C161.28 165.943 160.464 165.599 159.66 165.244C158.744 164.83 157.828 164.416 156.924 163.98C156.121 163.602 155.318 163.191 154.526 162.78C153.79 162.404 153.065 162.039 152.34 161.641C151.928 161.418 151.504 161.195 151.104 160.961C150.658 160.704 150.202 160.435 149.756 160.178C148.977 159.722 148.198 159.243 147.43 158.765C146.673 158.299 145.917 157.81 145.184 157.31C144.395 156.764 143.653 156.151 142.911 155.55C141.515 154.406 140.142 153.239 138.804 152.029C138.13 151.418 137.466 150.807 136.815 150.174C136.196 149.587 135.601 148.966 135.005 148.357C133.616 146.921 132.261 145.44 130.907 143.97C130.598 143.637 130.598 143.12 130.932 142.801C131.255 142.494 131.796 142.494 132.105 142.827C133.647 144.515 135.188 146.224 136.799 147.835C138.09 149.123 139.404 150.389 140.777 151.578C142.116 152.743 143.478 153.887 144.863 155.008C145.107 155.194 145.35 155.39 145.594 155.576C145.827 155.749 146.072 155.912 146.317 156.075C146.828 156.424 147.351 156.75 147.862 157.077C148.329 157.379 148.819 157.671 149.298 157.963C149.798 158.267 150.299 158.581 150.811 158.874C151.223 159.108 151.624 159.364 152.048 159.587C152.516 159.845 152.984 160.092 153.441 160.349C154.209 160.771 154.99 161.159 155.771 161.548C156.53 161.936 157.288 162.312 158.058 162.678C158.862 163.056 159.666 163.422 160.47 163.777C161.677 164.288 162.884 164.809 164.102 165.297C164.762 165.57 165.433 165.833 166.093 166.083C166.753 166.334 167.413 166.574 168.073 166.813C168.856 167.101 169.64 167.377 170.423 167.641C170.871 167.786 171.319 167.942 171.767 168.076C172.215 168.21 172.663 168.354 173.112 168.477C173.986 168.71 174.872 168.943 175.759 169.131C176.242 169.232 176.713 169.332 177.196 169.422C176.898 169.123 176.635 168.802 176.337 168.514C176.105 168.284 175.862 168.043 175.63 167.813C175.244 167.422 174.858 167.042 174.483 166.651C174.317 166.49 174.141 166.318 173.987 166.146C173.656 165.778 173.326 165.422 172.996 165.055C172.786 164.826 172.577 164.607 172.379 164.378C171.896 163.794 171.39 163.209 170.929 162.603C170.732 162.34 170.524 162.065 170.327 161.802C170.206 161.653 170.085 161.493 169.976 161.333C169.682 160.877 169.376 160.42 169.082 159.964C168.885 159.656 168.712 159.337 168.527 159.018C168.364 158.733 168.202 158.449 168.028 158.152C167.962 158.038 167.897 157.925 167.832 157.811C167.432 157.048 167.02 156.286 166.654 155.513C166.233 154.626 165.813 153.74 165.415 152.854C164.706 151.263 164.019 149.674 163.356 148.062C162.96 147.075 162.565 146.099 162.18 145.112C161.881 144.352 161.594 143.581 161.329 142.799C161.044 141.938 160.747 141.076 160.507 140.205C160.267 139.334 160.015 138.462 159.798 137.58C159.58 136.709 159.374 135.839 159.168 134.968C158.972 134.143 158.809 133.318 158.568 132.503C158.178 132.27 158.054 131.75 158.3 131.361C158.534 130.973 159.056 130.849 159.445 131.094C159.656 131.223 159.845 131.373 159.987 131.59C160.085 131.727 160.138 131.897 160.19 132.067C160.232 132.225 160.285 132.384 160.315 132.553C160.409 132.915 160.491 133.277 160.573 133.638C160.676 134.079 160.779 134.532 160.893 134.984C160.832 134.679 160.771 134.374 160.71 134.08C160.618 133.651 160.549 133.211 160.479 132.77C160.409 132.375 160.362 131.981 160.325 131.586C160.298 131.271 160.271 130.966 160.278 130.652C160.282 130.494 160.285 130.348 160.322 130.203C160.359 130.057 160.418 129.935 160.489 129.802L160.443 129.812ZM158.502 132.412C158.502 132.412 158.524 132.435 158.535 132.446C158.536 132.435 158.513 132.423 158.502 132.412ZM158.578 132.537C158.578 132.537 158.578 132.56 158.589 132.571C158.589 132.571 158.589 132.549 158.578 132.537ZM160.593 163.847C160.593 163.847 160.638 163.86 160.649 163.871C160.626 163.871 160.615 163.859 160.593 163.847Z" fill="#529471"/>
<path d="M161.397 131.553C161.477 131.533 161.545 131.523 161.612 131.524C161.973 131.532 162.295 131.787 162.399 132.149C162.494 132.466 162.577 132.794 162.648 133.122C162.844 133.992 163.016 134.873 163.2 135.743C163.383 136.636 163.577 137.529 163.772 138.41C164.141 140.105 164.554 141.802 165.002 143.476C165.252 144.415 165.525 145.332 165.798 146.26C166.06 147.166 166.356 148.061 166.641 148.956C167.168 150.609 167.764 152.242 168.382 153.875C168.596 154.397 168.81 154.908 169.024 155.43C169.195 155.839 169.378 156.248 169.572 156.646C169.787 157.123 169.991 157.6 170.229 158.066C170.532 158.658 170.823 159.238 171.126 159.829C171.537 160.637 172.004 161.423 172.449 162.22C172.634 162.539 172.841 162.859 173.037 163.167C173.255 163.509 173.462 163.862 173.691 164.205C174.248 165.015 174.806 165.826 175.375 166.626C175.889 167.335 176.415 168.044 176.918 168.763C177.267 169.277 177.684 169.792 177.874 170.393C177.958 170.665 178.008 170.969 177.923 171.249C177.825 171.573 177.537 171.847 177.22 171.942C176.732 172.077 176.227 171.92 175.756 171.808C175.566 171.759 175.375 171.698 175.196 171.649C174.344 171.383 173.517 171.05 172.689 170.75C171.85 170.439 171 170.128 170.149 169.851C169.32 169.574 168.492 169.274 167.688 168.93C166.861 168.586 166.034 168.23 165.208 167.852C164.761 167.651 164.314 167.461 163.879 167.26C163.41 167.036 162.93 166.801 162.461 166.577C162.182 166.447 161.915 166.295 161.648 166.142C161.545 166.185 161.432 166.205 161.319 166.203C160.959 166.183 160.61 166.142 160.274 166.022C160.006 165.926 159.737 165.842 159.48 165.723C159.335 165.664 159.189 165.605 159.033 165.545C158.541 165.343 158.038 165.129 157.546 164.927C157.166 164.773 156.81 164.573 156.442 164.385C155.906 164.115 155.371 163.856 154.835 163.585C154.601 163.467 154.389 163.35 154.167 163.222C153.621 162.906 153.075 162.59 152.529 162.274C152.262 162.122 151.983 161.981 151.728 161.807C151.283 161.505 150.839 161.214 150.405 160.912C149.983 160.621 149.549 160.342 149.127 160.051C148.872 159.877 148.617 159.68 148.361 159.494C147.64 158.961 146.918 158.439 146.186 157.905C144.676 156.815 143.166 155.724 141.656 154.656C140.867 154.099 140.079 153.542 139.291 152.962C138.936 152.695 138.569 152.44 138.226 152.162C137.783 151.793 137.34 151.423 136.908 151.053C136.631 150.822 136.366 150.569 136.101 150.316C135.792 150.028 135.482 149.74 135.196 149.441C134.556 148.775 133.894 148.119 133.278 147.43C132.958 147.075 132.65 146.73 132.354 146.364C132.046 145.997 131.761 145.62 131.465 145.242C131.18 144.865 130.895 144.487 130.622 144.099C130.479 143.905 130.348 143.71 130.217 143.516C130.13 143.391 130.042 143.276 129.966 143.14C129.814 142.9 129.729 142.651 129.645 142.379C129.498 141.87 129.939 141.317 130.468 141.351C130.694 141.356 130.907 141.384 131.12 141.467C131.355 141.562 131.566 141.69 131.777 141.841C131.91 141.934 132.044 142.027 132.177 142.12C132.532 142.364 132.888 142.619 133.243 142.875C133.078 142.68 132.925 142.474 132.76 142.279C132.76 142.279 132.749 142.268 132.738 142.256C132.671 142.199 132.628 142.13 132.584 142.05C132.409 141.822 132.245 141.582 132.081 141.342C131.907 141.079 131.755 140.817 131.614 140.533C131.474 140.249 131.323 139.931 131.274 139.615C131.214 139.265 131.176 138.915 131.263 138.568C131.325 138.3 131.455 138.022 131.651 137.835C131.87 137.626 132.189 137.498 132.493 137.505C132.651 137.508 132.808 137.557 132.942 137.616C133.098 137.687 133.244 137.746 133.388 137.839C133.844 138.131 134.253 138.5 134.64 138.868C135.236 139.444 135.786 140.074 136.302 140.716C136.851 141.403 137.388 142.1 137.937 142.787C138.508 143.497 139.09 144.207 139.672 144.906C140.244 145.583 140.804 146.27 141.41 146.924C142.07 147.647 142.731 148.359 143.404 149.06C143.999 149.681 144.595 150.29 145.213 150.877C145.567 151.222 145.931 151.568 146.285 151.913C146.561 152.178 146.825 152.442 147.102 152.696C147.5 153.065 147.898 153.422 148.296 153.791C148.605 154.068 148.903 154.367 149.224 154.644C149.9 155.198 150.565 155.753 151.24 156.319C151.939 156.829 152.639 157.34 153.338 157.85C153.904 158.256 154.505 158.618 155.083 158.991C155.639 159.352 156.195 159.713 156.763 160.051C157.565 160.519 158.355 160.986 159.157 161.454C159.424 161.606 159.703 161.747 159.971 161.899C160.55 162.204 161.119 162.521 161.698 162.826C162.389 163.201 163.081 163.542 163.784 163.895C164.531 164.272 165.29 164.66 166.048 165.025C166.964 165.462 167.879 165.898 168.794 166.334C169.274 166.547 169.755 166.76 170.235 166.973C170.727 167.176 171.207 167.377 171.688 167.59C171.911 167.685 172.135 167.78 172.358 167.886C172.425 167.91 172.492 167.934 172.57 167.97C173.219 168.22 173.879 168.449 174.551 168.655C174.652 168.691 174.764 168.716 174.865 168.74C174.778 168.626 174.701 168.512 174.614 168.386C174.22 167.838 173.826 167.289 173.432 166.741C173.038 166.192 172.678 165.633 172.296 165.085C171.924 164.537 171.599 163.967 171.25 163.408C171.065 163.112 170.902 162.804 170.729 162.497C170.479 162.053 170.23 161.609 169.98 161.165C169.763 160.777 169.569 160.368 169.374 159.982C169.18 159.606 168.974 159.242 168.802 158.855C168.587 158.378 168.36 157.901 168.145 157.424C168.006 157.106 167.855 156.799 167.715 156.481C167.34 155.573 166.954 154.676 166.613 153.757C166.432 153.27 166.252 152.782 166.07 152.306C165.911 151.875 165.774 151.433 165.614 151.002C165.307 150.096 165.011 149.189 164.727 148.283C164.178 146.562 163.698 144.83 163.229 143.088C163.114 142.669 163.022 142.251 162.907 141.821C162.814 141.459 162.72 141.109 162.649 140.747C162.423 139.764 162.208 138.78 161.992 137.797C161.818 137.006 161.655 136.215 161.481 135.413C161.288 134.475 161.106 133.526 160.844 132.598C160.718 132.168 161.022 131.703 161.441 131.599L161.397 131.553ZM132.988 139.596C133.236 140.119 133.553 140.599 133.892 141.078C133.892 141.09 133.914 141.101 133.925 141.113C134.533 141.644 135.13 142.197 135.727 142.738C135.805 142.808 135.882 142.877 135.96 142.946C135.038 141.767 134.106 140.588 133 139.585L132.988 139.596ZM137.597 149.472C138.161 150.001 138.77 150.487 139.357 150.984C139.513 151.1 139.657 151.204 139.812 151.32C141.366 152.479 142.954 153.583 144.542 154.709C145.997 155.742 147.44 156.808 148.894 157.864C149.238 158.119 149.582 158.363 149.926 158.618C150.237 158.85 150.582 159.06 150.904 159.281C151.404 159.618 151.915 159.955 152.415 160.304C152.626 160.443 152.849 160.572 153.072 160.701C153.618 161.016 154.174 161.332 154.72 161.659C154.976 161.811 155.221 161.963 155.489 162.092C155.734 162.222 155.991 162.34 156.236 162.469C156.147 162.399 156.059 162.33 155.97 162.261C155.205 161.659 154.44 161.057 153.675 160.455C153.631 160.421 153.586 160.386 153.542 160.351C153.364 160.235 153.186 160.13 153.008 160.013C152.864 159.92 152.707 159.838 152.563 159.733C152.141 159.443 151.73 159.153 151.308 158.862C150.652 158.409 150.032 157.912 149.4 157.425C148.59 156.8 147.792 156.164 146.994 155.528C146.651 155.25 146.318 154.973 145.975 154.695C145.654 154.43 145.332 154.175 145.034 153.899C144.702 153.599 144.37 153.299 144.038 153.011C143.451 152.536 142.875 152.074 142.299 151.6C141.477 150.997 140.667 150.406 139.857 149.803C138.237 148.597 136.617 147.403 134.996 146.209C134.441 145.803 133.898 145.408 133.343 145.003C133.496 145.197 133.661 145.392 133.815 145.575C134.067 145.885 134.332 146.172 134.607 146.459C134.894 146.769 135.18 147.079 135.478 147.389C135.809 147.734 136.128 148.09 136.481 148.423C136.857 148.78 137.233 149.137 137.608 149.494L137.597 149.472ZM168.571 166.217C168.571 166.217 168.616 166.24 168.649 166.252C168.627 166.252 168.605 166.229 168.571 166.217Z" fill="#529471"/>
<path d="M99.9023 2.12763C97.8393 2.082 95.765 2.03613 93.701 2.03546C91.5695 2.02206 89.4492 2.02016 87.3273 2.08569C86.2663 2.11846 85.2054 2.15123 84.1434 2.22897C83.0023 2.3162 81.872 2.42616 80.7405 2.59233C79.6996 2.738 78.6685 2.95138 77.6489 3.15376C76.6406 3.3564 75.6323 3.55903 74.6237 3.77291C74.1818 3.86435 73.7287 3.95555 73.2865 4.05824C72.9917 4.13044 72.6968 4.20265 72.402 4.27486C72.1299 4.33632 71.8686 4.42051 71.6076 4.49347C70.6542 4.76479 69.711 5.08133 68.7787 5.42061C66.8232 6.11964 64.8786 6.84141 62.977 7.6541C61.9522 8.09255 60.9277 8.51975 59.9247 8.99242C58.8645 9.49757 57.8042 10.014 56.7438 10.5303C54.8849 11.4564 53.0257 12.3938 51.1668 13.3199C49.2965 14.2457 47.4268 15.1491 45.5566 16.075C45.0777 16.3118 44.599 16.5374 44.1313 16.7745C43.6408 17.0223 43.1503 17.2701 42.6709 17.5294C41.7573 18.0378 40.8438 18.5462 39.9515 19.1113C39.5282 19.3831 39.0936 19.6547 38.67 19.9377C38.2118 20.2537 37.7316 20.5468 37.2845 20.8743C36.8261 21.2015 36.3793 21.5178 35.9209 21.8451C35.4509 22.1833 35.0031 22.5446 34.5555 22.8946C34.1655 23.1896 33.7973 23.5189 33.418 23.8366C33.0157 24.1764 32.613 24.5386 32.222 24.8786C31.831 25.2186 31.4505 25.5926 31.0705 25.9441C30.7021 26.2846 30.3331 26.6475 29.9869 26.9998C29.2598 27.7485 28.5212 28.5082 27.8161 29.2798C27.1108 30.0627 26.3939 30.8567 25.7437 31.697C25.0937 32.5261 24.4438 33.3553 23.8382 34.2191C23.2328 35.0717 22.6275 35.9243 22.0442 36.7999C21.4378 37.6975 20.8425 38.6065 20.2471 39.5156C19.6633 40.4137 19.1126 41.3462 18.5734 42.2678C18.3157 42.7007 18.0915 43.1456 17.8451 43.5788C17.7159 43.8121 17.5974 44.0681 17.4792 44.3129C17.3728 44.5355 17.2553 44.7466 17.1489 44.9692C16.6758 45.9597 16.214 46.9504 15.741 47.9409C14.866 49.766 14.0356 51.6146 13.1826 53.4627C12.2941 55.3887 11.4281 57.3152 10.5173 59.2295C9.58321 61.177 8.61554 63.1125 7.70348 65.083C6.80319 67.0313 5.95852 69.0145 5.36039 71.0707C5.21367 71.5848 5.0672 72.0876 4.94303 72.6022C4.88094 72.8595 4.81912 73.1056 4.75703 73.3629C4.68268 73.6649 4.6419 73.9789 4.57857 74.2924C4.48872 74.7853 4.43244 75.2901 4.36513 75.7835C4.33761 76.0078 4.33264 76.2327 4.30537 76.4457C4.28862 76.6928 4.27188 76.9399 4.25514 77.1869C4.24296 77.7377 4.23077 78.2885 4.22962 78.8508C4.22945 79.3682 4.27438 79.8865 4.33057 80.4051C4.45351 81.4763 4.63331 82.5262 4.85821 83.5771C5.06279 84.5263 5.33527 85.4659 5.60799 86.3941C5.90128 87.4128 6.22838 88.4322 6.55573 89.4404C7.18887 91.4114 7.79947 93.3818 8.52355 95.321C9.25765 97.3166 10.1396 99.2593 11.0104 101.19C11.4405 102.145 11.9046 103.088 12.3687 104.032C12.8113 104.93 13.3107 105.808 13.7989 106.684C14.2866 107.584 14.7857 108.472 15.2619 109.382C15.7273 110.27 16.1808 111.179 16.669 112.056C17.2008 113.001 17.7325 113.947 18.3101 114.859C18.8875 115.783 19.4876 116.696 20.099 117.609C21.267 119.367 22.4923 121.081 23.7635 122.762C24.3884 123.575 25.0361 124.376 25.6841 125.167C26.3098 125.945 26.9583 126.713 27.6183 127.47C28.3114 128.261 28.9931 129.053 29.7093 129.822C30.4367 130.592 31.1751 131.373 31.914 132.131C32.6639 132.901 33.3908 133.693 34.1753 134.431C34.5399 134.776 34.9049 135.099 35.281 135.434C35.6681 135.78 36.0895 136.104 36.4884 136.427C37.1644 136.971 37.7597 137.591 38.4009 138.179C38.7768 138.525 39.1526 138.871 39.5632 139.172C40.0067 139.519 40.4622 139.833 40.929 140.147C41.3291 140.415 41.7643 140.627 42.1767 140.849C42.645 141.096 43.1365 141.309 43.6168 141.522C44.5328 141.925 45.484 142.261 46.4123 142.619C47.3182 142.965 48.2357 143.3 49.1774 143.557C50.063 143.802 50.9361 144.102 51.798 144.403C52.7047 144.715 53.5996 145.05 54.5065 145.351C55.4918 145.676 56.4664 145.979 57.464 146.26C58.3943 146.528 59.3255 146.751 60.256 147.008C61.3097 147.301 62.3629 147.617 63.4164 147.921C64.3466 148.189 65.2776 148.423 66.2201 148.647C67.23 148.883 68.2511 149.119 69.2723 149.355C71.371 149.829 73.4809 150.303 75.6044 150.676C76.1886 150.779 76.7838 150.893 77.3683 150.985C77.9192 151.065 78.4589 151.144 79.0098 151.224C79.257 151.263 79.505 151.268 79.7526 151.296C80.0564 151.326 80.3603 151.355 80.6642 151.384C81.2382 151.442 81.8244 151.455 82.3986 151.501C83.4122 151.569 84.4378 151.602 85.4519 151.647C86.4322 151.692 87.412 151.758 88.3928 151.78C88.9452 151.792 89.4976 151.804 90.0613 151.817C90.298 151.822 90.5465 151.805 90.7832 151.81C91.1442 151.807 91.5052 151.804 91.8778 151.79C92.4081 151.779 92.9277 151.745 93.4583 151.723C93.9551 151.701 94.4518 151.678 94.9489 151.644C97.1171 151.523 99.285 151.414 101.454 151.259C101.962 151.225 102.472 151.147 102.98 151.09C103.568 151.025 104.157 150.925 104.745 150.848C105.786 150.703 106.817 150.512 107.847 150.332C108.889 150.153 109.941 149.985 110.983 149.805C111.447 149.726 111.923 149.612 112.388 149.51C112.649 149.449 112.921 149.376 113.182 149.314C113.42 149.252 113.658 149.201 113.896 149.139C115.508 148.691 117.109 148.209 118.71 147.727C120.413 147.213 122.116 146.7 123.809 146.164C124.558 145.933 125.298 145.646 126.026 145.369C126.776 145.094 127.516 144.795 128.245 144.474C129.988 143.703 131.708 142.908 133.44 142.114C133.851 141.921 133.976 141.361 133.758 140.986C133.65 140.803 133.473 140.653 133.271 140.592C133.047 140.52 132.843 140.56 132.627 140.657C130.564 141.612 128.501 142.579 126.395 143.454C125.542 143.784 124.7 144.114 123.836 144.399C122.927 144.705 122.008 144.977 121.088 145.26C119.033 145.878 116.989 146.508 114.934 147.115C113.038 147.68 111.11 148.132 109.163 148.449C108.122 148.617 107.092 148.786 106.061 148.965C105.02 149.145 103.967 149.301 102.927 149.447C102.486 149.494 102.045 149.54 101.604 149.598C101.061 149.653 100.519 149.675 99.9767 149.719C99.4005 149.763 98.8248 149.784 98.2489 149.816C97.6955 149.849 97.1421 149.882 96.5887 149.914C95.64 149.972 94.7026 150.03 93.7541 150.077C93.1671 150.097 92.5799 150.129 91.9817 150.15C91.3947 150.171 90.8083 150.169 90.2216 150.178C89.725 150.19 89.2408 150.157 88.7447 150.146C88.2487 150.135 87.7304 150.112 87.2233 150.09C86.2318 150.045 85.2517 149.99 84.2602 149.945C83.0998 149.886 81.9393 149.827 80.7794 149.745C80.2388 149.71 79.7102 149.642 79.1701 149.585C78.6299 149.528 78.0906 149.438 77.5622 149.359C76.495 149.166 75.4164 148.974 74.3497 148.759C73.2827 148.555 72.2277 148.318 71.1725 148.093C70.1286 147.867 69.0851 147.619 68.0416 147.371C67.1102 147.159 66.1672 146.958 65.248 146.702C64.183 146.408 63.1295 146.104 62.0647 145.799C61.1235 145.52 60.1705 145.263 59.2172 145.016C58.2642 144.759 57.3112 144.502 56.3815 144.212C55.3958 143.897 54.4105 143.572 53.4369 143.224C52.7094 142.972 51.9821 142.708 51.2543 142.467C50.8402 142.323 50.4145 142.19 49.9888 142.057C49.5742 141.935 49.1481 141.825 48.7337 141.692C47.8603 141.403 47.0105 141.069 46.1492 140.746C45.7801 140.603 45.4108 140.471 45.0418 140.328C44.6282 140.161 44.2258 139.995 43.8237 139.817C43.2657 139.546 42.7078 139.275 42.1734 138.96C41.5944 138.621 41.0504 138.227 40.518 137.821C39.8869 137.29 39.2903 136.726 38.6939 136.15C38.0202 135.505 37.2773 134.927 36.5575 134.326C35.8489 133.725 35.1754 133.069 34.5244 132.414C33.7742 131.655 33.0356 130.885 32.2859 130.104C30.9078 128.668 29.5753 127.21 28.3004 125.697C26.9816 124.127 25.686 122.535 24.4474 120.911C23.8781 120.133 23.3087 119.356 22.7625 118.557C22.1616 117.677 21.5609 116.787 20.9716 115.897C19.8033 114.15 18.7265 112.349 17.7412 110.494C17.254 109.572 16.7782 108.651 16.2797 107.729C15.7707 106.773 15.2392 105.816 14.7187 104.871C13.7211 103.061 12.8492 101.175 11.9999 99.2892C11.5267 98.244 11.0766 97.1769 10.6263 96.121C10.1458 94.8957 9.68793 93.671 9.27586 92.4135C8.82145 91.0313 8.38955 89.6497 7.94639 88.2678C7.49248 86.8632 7.08414 85.437 6.69834 84.0114C6.35491 82.7105 6.12496 81.3783 5.97416 80.0366C5.9488 79.6536 5.91242 79.2592 5.92087 78.877C5.92054 78.3821 5.9202 77.8873 5.94242 77.3929C5.95286 76.9208 5.99711 76.4494 6.03009 75.9778C6.0606 75.6186 6.11366 75.2598 6.15544 74.9009C6.21901 74.5761 6.28234 74.2626 6.33465 73.9376C6.39897 73.5792 6.50812 73.2329 6.59475 72.8862C6.75622 72.215 6.95151 71.5445 7.16885 70.897C7.30156 70.5063 7.43427 70.1156 7.56698 69.7249C7.69944 69.3454 7.8542 68.9777 7.98642 68.6095C8.23783 67.9515 8.52279 67.3055 8.80778 66.6595C9.23451 65.7242 9.68378 64.7894 10.1218 63.8544C10.5595 62.9306 11.0196 62.0185 11.4571 61.106C12.3797 59.1695 13.2797 57.2325 14.1687 55.284C15.0692 53.3245 15.9472 51.3645 16.8698 49.4279C17.2725 48.5596 17.6977 47.6918 18.1004 46.8234C18.5617 45.8552 19.0345 44.8759 19.5517 43.9314C20.139 42.876 20.7483 41.8435 21.3912 40.823C21.9876 39.869 22.6172 38.9382 23.2356 38.0072C23.877 37.0541 24.5407 36.1128 25.2044 35.1716C25.8333 34.2745 26.5068 33.4009 27.1801 32.5385C27.8521 31.7324 28.5241 30.9263 29.2402 30.1661C30.0605 29.2845 30.8918 28.4144 31.7562 27.5787C32.6093 26.7429 33.5068 25.9417 34.4153 25.152C35.186 24.4718 36.0006 23.8488 36.8267 23.2147C37.2393 22.9202 37.6403 22.6366 38.0529 22.3421C38.4997 22.0258 38.9574 21.7323 39.404 21.4273C40.2742 20.8392 41.1772 20.2968 42.0803 19.7545C42.9948 19.2011 43.9415 18.7272 44.8886 18.2308C45.8355 17.7456 46.7931 17.2832 47.7508 16.8208C49.6548 15.8957 51.5481 14.9478 53.4411 14.0113C54.3649 13.5481 55.2887 13.0849 56.2123 12.633C57.1477 12.1588 58.0831 11.6846 59.0292 11.2332C59.6103 10.9649 60.1805 10.6851 60.7619 10.4055C61.309 10.1477 61.8669 9.91262 62.4252 9.65505C63.4049 9.2156 64.4064 8.81038 65.4079 8.40515C66.7163 7.89425 68.0242 7.40583 69.3428 6.94014C70.6843 6.46371 72.0473 6.03274 73.4308 5.6922C74.8936 5.34216 76.3771 5.07131 77.8501 4.76649C78.4506 4.64481 79.0623 4.52338 79.6625 4.41294C80.0363 4.34248 80.4103 4.26078 80.7836 4.2128C81.1796 4.15408 81.5644 4.09511 81.9602 4.04763C82.9099 3.94492 83.8481 3.8532 84.7966 3.8067C85.858 3.75145 86.9079 3.70719 87.9686 3.68566C90.09 3.6426 92.2106 3.63327 94.3305 3.65766C98.6042 3.70719 102.877 3.7792 107.16 3.91891C109.392 3.99076 111.624 4.05137 113.855 4.15694C115.917 4.24753 117.976 4.4393 120.036 4.63106C122.107 4.82307 124.178 5.02632 126.25 5.19585C127.477 5.29048 128.704 5.3851 129.921 5.46823C130.878 5.53439 131.835 5.58931 132.792 5.6667C133.975 5.76033 135.169 5.83172 136.35 5.95907C136.969 6.02899 137.577 6.08742 138.195 6.15734C138.78 6.22651 139.376 6.31841 139.961 6.39882C140.995 6.5679 142.029 6.73697 143.051 6.92828C144.073 7.10834 145.095 7.32213 146.105 7.52443C148.149 7.94077 150.168 8.45777 152.175 9.00826C154.159 9.547 156.119 10.1752 158.067 10.8256C159.019 11.1503 159.969 11.52 160.908 11.8894C161.903 12.2825 162.887 12.6754 163.883 13.0573C164.856 13.4275 165.84 13.7979 166.813 14.1681C167.786 14.5382 168.736 14.9529 169.697 15.3565C170.959 15.9355 172.22 16.537 173.481 17.1385C174.173 17.4687 174.853 17.8099 175.545 18.1401C176.092 18.4108 176.639 18.6704 177.185 18.9636C177.832 19.3153 178.489 19.6673 179.124 20.0299C179.726 20.3806 180.315 20.7423 180.882 21.1373C181.493 21.5556 182.104 21.9853 182.714 22.4262C183.303 22.8553 183.868 23.2952 184.445 23.7353C184.899 24.1052 185.353 24.4752 185.807 24.8676C186.338 25.3292 186.846 25.8128 187.355 26.2964C187.796 26.7223 188.227 27.1592 188.657 27.5961C189.164 28.1247 189.671 28.642 190.178 29.1705C191.071 30.1013 191.976 31.0098 192.858 31.9515C193.298 32.4224 193.75 32.8935 194.157 33.3973C194.376 33.6721 194.618 33.9473 194.826 34.2331C195.013 34.4734 195.199 34.725 195.374 34.9763C195.603 35.3075 195.833 35.6275 196.04 35.9694C196.301 36.3801 196.552 36.7905 196.79 37.2119C196.877 37.3713 196.986 37.5312 197.062 37.6903C197.202 37.9746 197.342 38.2701 197.483 38.5544C197.644 38.8953 197.783 39.2583 197.933 39.6103C198.05 39.939 198.178 40.2792 198.294 40.608C198.422 40.9707 198.538 41.3444 198.654 41.7068C198.896 42.4545 199.094 43.2124 199.303 43.9593C199.701 45.3514 200.065 46.7428 200.395 48.1447C200.756 49.671 201.128 51.1975 201.399 52.733C201.479 53.1622 201.549 53.6024 201.629 54.0315C201.699 54.4379 201.747 54.8439 201.805 55.25C201.903 55.9495 201.989 56.6599 202.063 57.3701C202.228 59.072 202.382 60.7849 202.525 62.4863C202.666 64.2552 202.797 66.0125 202.825 67.7901C202.838 68.7351 202.862 69.6804 202.864 70.6252C202.856 70.9736 202.871 71.3339 202.863 71.6936C202.852 72.1657 202.865 72.6383 202.843 73.1102C202.819 73.6608 202.785 74.2111 202.761 74.7617C202.752 75.1776 202.686 75.6035 202.654 76.0189C202.612 76.4229 202.58 76.827 202.515 77.2192C202.437 77.7011 202.37 78.1832 202.291 78.6651C202.085 79.8414 201.878 81.029 201.649 82.2048C201.408 83.4142 201.167 84.6347 200.847 85.831C200.699 86.4013 200.54 86.9602 200.37 87.5187C200.176 88.1442 199.97 88.7583 199.742 89.3718C199.635 89.6506 199.538 89.9409 199.43 90.2309C199.298 90.5766 199.144 90.9219 199.012 91.2676C198.798 91.8027 198.549 92.337 198.312 92.8604C198.335 92.8159 198.347 92.7824 198.371 92.738C197.509 94.4846 196.602 96.219 195.562 97.8718C195.047 98.6814 194.533 99.5023 193.997 100.289C193.379 101.175 192.762 102.072 192.145 102.947C191.015 104.553 189.83 106.124 188.634 107.683C187.437 109.254 186.241 110.824 185.011 112.372C184.721 112.725 184.42 113.078 184.13 113.443C183.817 113.819 183.493 114.182 183.169 114.558C182.833 114.955 182.464 115.329 182.106 115.704C181.771 116.068 181.414 116.42 181.068 116.772C179.706 118.159 178.344 119.546 176.994 120.944C176.267 121.693 175.54 122.43 174.791 123.156C174.053 123.871 173.26 124.551 172.467 125.208C170.893 126.523 169.275 127.769 167.646 129.015C166.637 129.757 165.617 130.477 164.575 131.185C164.014 131.555 163.453 131.925 162.881 132.284C162.264 132.675 161.624 133.043 160.984 133.411C160.596 133.639 160.438 134.142 160.666 134.54C160.883 134.927 161.398 135.085 161.798 134.858C162.735 134.316 163.661 133.763 164.565 133.176C165.412 132.621 166.247 132.054 167.073 131.465C168.814 130.244 170.489 128.943 172.154 127.608C173.027 126.907 173.9 126.195 174.74 125.449C175.545 124.747 176.306 124.011 177.056 123.251C178.613 121.677 180.148 120.08 181.706 118.495C182.41 117.78 183.114 117.053 183.807 116.315C184.524 115.544 185.207 114.738 185.879 113.92C187.2 112.319 188.455 110.66 189.71 109.012C191.011 107.297 192.312 105.583 193.558 103.833C194.198 102.925 194.827 102.017 195.456 101.108C195.736 100.699 196.005 100.277 196.284 99.8672C196.553 99.457 196.821 99.0468 197.068 98.6249C197.607 97.7146 198.146 96.8043 198.64 95.8705C198.887 95.4036 199.134 94.9367 199.37 94.4696C199.63 93.9355 199.89 93.4126 200.128 92.8668C200.97 90.9847 201.712 89.0442 202.253 87.043C202.376 86.5734 202.522 86.1043 202.634 85.6231C202.759 85.0748 202.895 84.5267 202.997 83.9779C203.201 82.9365 203.404 81.895 203.597 80.8421C203.7 80.2595 203.803 79.6882 203.906 79.1057C204.022 78.456 204.104 77.7942 204.197 77.144C204.264 76.6619 204.298 76.179 204.353 75.6966C204.37 75.472 204.397 75.2477 204.413 75.0231C204.442 74.7314 204.438 74.4388 204.455 74.1468C204.477 73.6637 204.511 73.1808 204.51 72.6972C204.522 72.1464 204.523 71.5841 204.524 71.033C204.514 69.9531 204.515 68.8847 204.483 67.8043C204.462 67.219 204.441 66.6337 204.42 66.0484C204.398 65.4969 204.354 64.9448 204.321 64.393C204.255 63.3343 204.154 62.2749 204.064 61.227C203.973 60.2353 203.894 59.2326 203.792 58.2406C203.691 57.2149 203.601 56.1895 203.454 55.174C203.297 54.1134 203.151 53.053 202.937 52.0023C202.724 50.9516 202.499 49.912 202.262 48.872C201.767 46.7805 201.227 44.6991 200.641 42.628C200.369 41.6773 200.085 40.7263 199.745 39.7853C199.543 39.241 199.329 38.7077 199.115 38.1743C199.04 37.9927 198.954 37.8109 198.868 37.629C198.739 37.3562 198.62 37.0837 198.48 36.8219C198.219 36.3551 197.947 35.8992 197.664 35.443C197.392 35.0096 197.108 34.5872 196.813 34.1646C196.649 33.9248 196.462 33.6957 196.287 33.4557C196.167 33.2843 196.035 33.1239 195.903 32.9523C195.695 32.7003 195.486 32.437 195.277 32.185C195.091 31.9559 194.881 31.7376 194.683 31.5083C194.023 30.7626 193.317 30.0497 192.622 29.3371C191.906 28.5902 191.178 27.843 190.461 27.0962C189.711 26.3148 188.962 25.5447 188.177 24.7963C187.79 24.4391 187.415 24.0822 187.016 23.736C186.552 23.332 186.086 22.9506 185.61 22.5689C184.768 21.8867 183.891 21.26 183.025 20.6223C182.614 20.3208 182.192 20.0416 181.77 19.7511C181.592 19.6234 181.403 19.518 181.214 19.3901C180.98 19.2387 180.736 19.0759 180.491 18.9243C179.589 18.3982 178.698 17.8837 177.761 17.4243C176.824 16.9537 175.887 16.4831 174.938 16.0348C173.945 15.5517 172.952 15.0686 171.947 14.6078C171.444 14.383 170.953 14.1472 170.45 13.9224C169.903 13.6741 169.344 13.448 168.797 13.211C168.317 12.9979 167.813 12.8181 167.332 12.6275C166.84 12.4254 166.337 12.2456 165.834 12.0545C164.838 11.6726 163.843 11.2907 162.847 10.9088C161.875 10.5274 160.902 10.146 159.929 9.76458C159.482 9.58599 159.023 9.44088 158.564 9.27328C158.071 9.09369 157.579 8.93658 157.086 8.77948C155.114 8.1623 153.143 7.55636 151.146 7.05109C149.116 6.53383 147.074 6.05005 145.008 5.6557C143.985 5.46439 142.964 5.26184 141.93 5.09277C141.379 5.00186 140.817 4.91071 140.266 4.8198C139.626 4.71566 138.973 4.63375 138.332 4.5521C137.838 4.48492 137.342 4.44023 136.847 4.38429C136.341 4.32811 135.823 4.28291 135.305 4.23772C134.303 4.14808 133.301 4.06969 132.288 4.00228C130.125 3.85324 127.963 3.71544 125.801 3.53268C123.527 3.33618 121.265 3.11745 118.991 2.90971C118.069 2.82181 117.145 2.74516 116.211 2.6795C115.648 2.64456 115.073 2.59812 114.51 2.56317C113.902 2.51598 113.282 2.50227 112.674 2.47756C111.659 2.43264 110.645 2.4102 109.631 2.37652C108.627 2.35433 107.624 2.30966 106.621 2.28747C105.291 2.24681 103.983 2.21789 102.676 2.18896C101.751 2.16852 100.827 2.14807 99.9023 2.12763Z" fill="#529471"/>
</g>
<defs>
<clipPath id="clip0_22_21779">
<rect width="202.317" height="168.142" fill="white" transform="matrix(-0.999756 -0.022111 -0.022111 0.999756 205.985 4.47363)"/>
</clipPath>
</defs>
</svg>
