<svg width="39" height="39" viewBox="0 0 39 39" fill="none" xmlns="http://www.w3.org/2000/svg">
<g clip-path="url(#clip0_27_25534)">
<path d="M19.5 38.7083C8.74756 38.7083 0 30.0262 0 19.3542C0 8.68214 8.74756 0 19.5 0C30.2524 0 39 8.68214 39 19.3542C39 30.0262 30.2524 38.7083 19.5 38.7083ZM19.5 1.60867C9.64136 1.60867 1.6208 9.56926 1.6208 19.3542C1.6208 29.1391 9.64136 37.0997 19.5 37.0997C29.3586 37.0997 37.3792 29.1391 37.3792 19.3542C37.3792 9.56926 29.3586 1.60867 19.5 1.60867Z" fill="#529471"/>
<path d="M22.5675 9.3869H23.9196V10.5316H23.5077C21.4081 10.5316 19.9417 12.0288 19.9417 14.1731V18.2009H23.5499L23.3326 19.1411H19.9417V29.3032C19.7934 29.3083 19.6462 29.3114 19.501 29.3114C19.0613 29.3114 18.6195 29.2889 18.1788 29.2429V19.1411H15.0814V18.1988H18.1788V13.6171C18.1788 12.6962 18.358 11.4136 19.2116 10.5275C19.9417 9.77016 21.0713 9.38587 22.5675 9.38587M22.5686 7.95605C18.6134 7.95605 16.7372 10.2924 16.7372 13.6181V16.769H13.6398V20.573H16.7372V30.4744C17.631 30.6502 18.5547 30.7442 19.501 30.7442C20.1394 30.7442 20.7665 30.6982 21.3833 30.6165V20.573H24.4808L25.3602 16.7711H21.3833V14.1741C21.3833 13.1101 21.9682 11.9634 23.5077 11.9634H25.3612V7.96014L22.5696 7.95708L22.5686 7.95605Z" fill="#529471"/>
</g>
<defs>
<clipPath id="clip0_27_25534">
<rect width="39" height="38.7083" fill="white"/>
</clipPath>
</defs>
</svg>
