<svg width="39" height="39" viewBox="0 0 39 39" fill="none" xmlns="http://www.w3.org/2000/svg">
<g clip-path="url(#clip0_27_25537)">
<path d="M19.5 38.7083C8.74756 38.7083 0 30.0262 0 19.3542C0 8.68214 8.74756 0 19.5 0C30.2524 0 39 8.68214 39 19.3542C39 30.0262 30.2524 38.7083 19.5 38.7083ZM19.5 1.60867C9.64136 1.60867 1.6208 9.56926 1.6208 19.3542C1.6208 29.1391 9.64136 37.0997 19.5 37.0997C29.3586 37.0997 37.3792 29.1391 37.3792 19.3542C37.3792 9.56926 29.3586 1.60867 19.5 1.60867Z" fill="#529471"/>
<path d="M7.91558 14.0645C8.11844 13.0128 8.30791 11.9581 8.88559 11.024C10.2016 8.89202 12.26 8.07337 14.6335 8.01614C17.87 7.93745 21.1105 7.93949 24.347 8.01716C26.5444 8.07031 28.4999 8.7888 29.8375 10.6785C30.6984 11.8947 31.0196 13.2888 31.0413 14.7288C31.0886 17.8164 31.1103 20.906 31.0382 23.9915C30.9805 26.4771 30.1094 28.5988 27.7647 29.862C26.6814 30.4456 25.4941 30.6991 24.2821 30.7134C21.0869 30.7502 17.8895 30.7808 14.6953 30.7083C12.2991 30.6541 10.216 29.8508 8.88456 27.6963C8.30688 26.7622 8.11844 25.7064 7.91455 24.6558V14.0645H7.91558ZM19.5083 10.192C17.9204 10.192 16.3326 10.1624 14.7468 10.1992C12.2683 10.2575 10.7432 11.4093 10.2922 13.5279C10.1964 13.9776 10.1254 14.4427 10.1233 14.9005C10.1089 17.8838 10.0687 20.8671 10.1295 23.8494C10.1903 26.8164 11.7019 28.4036 14.5862 28.5089C17.8432 28.6274 21.1054 28.6172 24.3635 28.5109C26.7658 28.4322 28.193 27.2845 28.6523 25.224C28.7347 24.8561 28.8119 24.478 28.814 24.1039C28.8315 20.7036 29.0199 17.2982 28.71 13.9041C28.5267 11.8937 27.1695 10.5804 25.1512 10.3055C23.2761 10.05 21.3886 10.2319 19.5083 10.1931V10.192Z" fill="#529471"/>
<path d="M25.4787 19.3987C25.4694 22.6028 22.79 25.2366 19.5011 25.2754C16.2008 25.3142 13.4638 22.611 13.473 19.321C13.4823 16.0873 16.2636 13.3831 19.5145 13.4444C22.8508 13.5067 25.489 16.1405 25.4787 19.3977V19.3987ZM23.2534 19.3691C23.2565 17.3291 21.5657 15.6591 19.4856 15.6489C17.419 15.6377 15.7024 17.3169 15.6993 19.3507C15.6962 21.3907 17.3871 23.0607 19.4671 23.0719C21.5327 23.0821 23.2503 21.4039 23.2534 19.3691Z" fill="#529471"/>
<path d="M25.6414 11.8888C26.4373 11.8786 27.1108 12.5327 27.1067 13.3125C27.1026 14.0596 26.4569 14.6994 25.6856 14.7219C24.8917 14.7443 24.2039 14.1015 24.1894 13.3258C24.175 12.5419 24.8238 11.9 25.6414 11.8898V11.8888Z" fill="#529471"/>
</g>
<defs>
<clipPath id="clip0_27_25537">
<rect width="39" height="38.7083" fill="white"/>
</clipPath>
</defs>
</svg>
