<svg width="39" height="39" viewBox="0 0 39 39" fill="none" xmlns="http://www.w3.org/2000/svg">
<g clip-path="url(#clip0_27_25543)">
<path d="M19.5 38.7083C8.74756 38.7083 0 30.0262 0 19.3542C0 8.68214 8.74756 0 19.5 0C30.2524 0 39 8.68214 39 19.3542C39 30.0262 30.2524 38.7083 19.5 38.7083ZM19.5 1.60867C9.64136 1.60867 1.6208 9.56926 1.6208 19.3542C1.6208 29.1391 9.64136 37.0997 19.5 37.0997C29.3586 37.0997 37.3792 29.1391 37.3792 19.3542C37.3792 9.56926 29.3586 1.60867 19.5 1.60867Z" fill="#529471"/>
<path d="M12.0108 10.7167C12.8438 10.7167 13.2238 11.3412 13.2238 11.9207C13.2238 12.2824 13.1054 13.1246 12.0108 13.1246C11.223 13.1246 10.7977 12.5594 10.7977 12.0269C10.7977 11.3923 11.223 10.7167 12.0108 10.7167ZM12.0108 9.79688C10.7267 9.79688 9.87097 10.8588 9.87097 12.0269C9.87097 13.0888 10.7267 14.0444 12.0108 14.0444C13.4019 14.0444 14.1505 13.0888 14.1505 11.9207C14.1505 10.7525 13.2948 9.79688 12.0108 9.79688Z" fill="#529471"/>
<path d="M13.2238 16.0263V27.9912H10.7977V16.0263H13.2238ZM14.1505 15.1064H9.87097V28.911H14.1505V15.1064Z" fill="#529471"/>
<path d="M24.4211 16.2392C25.5455 16.2392 26.4414 16.604 27.085 17.3235C27.8161 18.1412 28.2022 19.431 28.2022 21.0539V27.9915H25.7762V21.5844C25.7762 19.1826 24.6013 17.6915 22.7097 17.6915C20.818 17.6915 20.0663 19.3901 19.8254 19.9481L19.8099 19.9829L19.7976 20.0186C19.6431 20.4785 19.6431 20.8925 19.6431 21.3718V27.9915H17.2171V19.7795C17.2171 18.9036 17.1852 18.0809 17.1563 17.3552C17.146 17.0823 17.1357 16.8156 17.1275 16.558H19.2106L19.328 17.5504L19.4248 18.3629H20.8695L21.1414 17.9306C21.3916 17.5341 22.3657 16.2392 24.4211 16.2392ZM24.4211 15.3193C22.1742 15.3193 20.8901 16.5938 20.3557 17.4431H20.2486L20.0344 15.6382H16.1832C16.1832 16.8064 16.2903 18.1871 16.2903 19.7795V28.9113H20.5699V21.3718C20.5699 20.9466 20.5699 20.6288 20.677 20.3099C20.9982 19.5669 21.5327 18.6113 22.7097 18.6113C24.2079 18.6113 24.8494 19.8858 24.8494 21.5844V28.9113H29.129V21.0539C29.129 17.1253 27.0963 15.3204 24.4221 15.3204L24.4211 15.3193Z" fill="#529471"/>
</g>
<defs>
<clipPath id="clip0_27_25543">
<rect width="39" height="38.7083" fill="white"/>
</clipPath>
</defs>
</svg>
