<svg width="589" height="369" viewBox="0 0 589 369" fill="none" xmlns="http://www.w3.org/2000/svg">
<path d="M576.363 189.974H576.762C576.762 189.795 576.762 189.586 576.762 189.408C576.662 186.991 576.462 184.604 576.296 182.188C576.296 181.651 576.296 181.114 576.296 180.577C576.296 179.801 576.296 178.996 576.263 178.22H575.997C575.864 176.4 575.698 174.581 575.565 172.731C575.132 167.57 574.5 162.439 574.234 157.278C574.068 154.503 573.935 151.759 573.569 149.014C573.37 147.522 573.203 146.031 573.004 144.539C572.804 143.137 572.638 141.735 572.372 140.333C572.172 139.259 572.006 138.155 571.74 137.111C571.441 135.977 571.175 134.844 570.842 133.71C570.51 132.546 570.21 131.383 569.911 130.22C569.645 129.235 569.512 128.221 569.379 127.206C568.847 123.418 568.348 119.659 567.749 115.87C567.151 112.051 566.519 108.263 565.92 104.444C565.82 103.668 565.721 102.863 565.621 102.087C565.521 101.312 565.521 100.506 565.455 99.7306C565.388 98.9549 565.388 98.1494 565.355 97.3738C565.355 96.6578 565.255 95.912 565.189 95.196C565.122 94.3309 564.923 93.4657 564.79 92.6304C564.657 91.8547 564.49 91.1089 564.324 90.3631C563.991 88.7522 563.626 87.171 563.226 85.5899C562.827 83.9491 562.329 82.3381 561.763 80.7272C560.865 78.2511 559.602 75.9539 558.338 73.6568C557.606 72.3144 556.875 71.0017 556.143 69.6593C555.744 68.9731 555.345 68.3168 555.012 67.6008C554.646 66.855 554.281 66.1092 553.882 65.3634C552.751 62.7083 551.554 60.0531 550.257 57.4279C549.059 54.9816 547.796 52.5353 546.465 50.1487C545.168 47.8218 543.705 45.5545 542.142 43.3767C540.579 41.1691 538.717 39.1106 536.622 37.2908C534.427 35.4114 531.966 33.7408 529.372 32.3088C526.877 30.9365 524.284 29.7133 521.59 28.6692C515.87 26.4318 510.083 24.3136 504.297 22.1955C503 21.7182 501.636 21.3005 500.306 20.8829C498.876 20.4354 497.413 20.0774 495.949 19.6896C494.652 19.3614 493.289 19.0929 491.992 18.8244C491.36 18.7051 490.728 18.5858 490.096 18.4963C489.365 18.3769 488.666 18.2278 487.935 18.1383C481.782 17.2731 475.596 16.6168 469.411 16.0798C463.591 15.5727 457.705 15.2743 451.885 14.976C448.526 14.797 445.167 14.6479 441.808 14.5285C439.015 14.4092 436.221 14.3794 433.461 14.3794C421.256 14.26 409.018 14.3197 396.813 14.3794C384.741 14.439 372.669 14.6479 360.597 15.0357C354.345 15.2147 348.126 15.3937 341.873 15.6025C335.987 15.7815 330.134 15.9903 324.248 16.1693C312.275 16.5571 300.303 16.7063 288.331 16.7063C281.879 16.7063 275.428 16.7063 269.009 16.6466C263.189 16.6168 257.37 16.5571 251.55 16.3781C245.331 16.1693 239.145 15.871 232.959 15.5428C227.106 15.2445 221.287 14.8865 215.433 14.439C209.447 13.9915 203.461 13.4844 197.475 13.0369C191.123 12.5596 184.805 12.1419 178.453 11.7541C172.633 11.3961 166.846 11.1873 161.026 10.9784C155.207 10.7696 149.387 10.6801 143.6 10.5906C140.507 10.5608 137.448 10.5011 134.355 10.4713C131.761 10.4713 129.134 10.4116 126.54 10.4116C126.074 10.4116 125.609 10.4116 125.176 10.4116C118.957 10.4415 112.705 10.5011 106.486 10.6801C100.068 10.8591 93.6161 11.0978 87.1977 11.4259C83.9719 11.6049 80.746 11.7839 77.5202 11.9629C74.8929 12.1121 72.2657 12.2612 69.6717 12.5297C68.0089 12.7087 66.3461 12.8579 64.6833 13.0369C62.8542 13.2159 61.0251 13.544 59.196 13.8125C57.7327 14.0214 56.2695 14.3197 54.8062 14.5882C53.3097 14.8567 51.8131 15.2147 50.3166 15.513C46.6252 16.3185 43.0003 17.303 39.4418 18.5261C32.059 21.032 25.1084 24.7611 19.4881 29.8327C17.0272 32.0701 14.9986 34.7252 13.6351 37.6488C12.9034 39.2001 12.4046 40.7813 12.0388 42.4519C11.7395 43.8242 11.5732 45.2562 11.4402 46.6583C11.3071 48.0306 11.1408 49.3731 11.0743 50.7454C10.9746 52.2072 10.9413 53.6988 10.9081 55.1606C10.8415 57.935 10.9081 60.7095 10.8748 63.4839C10.8748 66.139 10.8083 68.7643 10.775 71.4194C10.6753 76.9683 10.4425 82.4873 10.0101 88.0063C9.61106 93.3762 8.94594 98.7461 8.48035 104.146C7.51592 114.945 7.51592 125.804 7.51592 136.663C7.51592 147.791 7.58243 158.919 7.78197 170.046C7.81523 172.791 7.84848 175.535 7.88174 178.25H7.48267C7.48267 178.429 7.48267 178.638 7.48267 178.817C7.58243 181.233 7.78197 183.62 7.94825 186.036C7.94825 186.573 7.94825 187.11 7.94825 187.647C7.94825 188.423 7.94825 189.228 7.98151 190.004H8.24756C8.38058 191.824 8.54686 193.644 8.67989 195.493C9.11222 200.654 9.74409 205.786 10.0101 210.947C10.1764 213.721 10.3094 216.466 10.6753 219.21C10.8748 220.702 11.0411 222.194 11.2406 223.685C11.4402 225.087 11.6064 226.489 11.8725 227.892C12.072 228.966 12.2383 230.069 12.5043 231.114C12.8037 232.247 13.0697 233.381 13.4023 234.514C13.7348 235.678 14.0341 236.841 14.3334 238.005C14.5995 238.989 14.7325 240.004 14.8655 241.018C15.3976 244.807 15.8965 248.566 16.4951 252.354C17.0937 256.173 17.7256 259.962 18.3242 263.78C18.4239 264.556 18.5237 265.361 18.6235 266.137C18.7233 266.913 18.7233 267.718 18.7898 268.494C18.8563 269.27 18.8563 270.075 18.8895 270.851C18.8895 271.567 18.9893 272.312 19.0558 273.028C19.1223 273.894 19.3219 274.759 19.4549 275.594C19.5879 276.37 19.7542 277.115 19.9205 277.861C20.253 279.472 20.6189 281.053 21.0179 282.635C21.417 284.275 21.9158 285.886 22.4812 287.497C23.3791 289.973 24.6428 292.27 25.9066 294.568C26.6382 295.91 27.3699 297.223 28.1015 298.565C28.5006 299.251 28.8996 299.908 29.2322 300.624C29.598 301.369 29.9638 302.115 30.3629 302.861C31.4936 305.516 32.6908 308.171 33.9878 310.797C35.1851 313.243 36.4488 315.689 37.779 318.076C39.076 320.403 40.5393 322.67 42.1023 324.848C43.6654 327.055 45.5277 329.114 47.6229 330.934C49.8178 332.813 52.2787 334.484 54.8727 335.916C57.3669 337.288 59.9609 338.511 62.6546 339.555C68.3747 341.793 74.1613 343.911 79.9479 346.029C81.2449 346.506 82.5751 346.924 83.9386 347.342C85.3686 347.789 86.8319 348.147 88.2952 348.535C89.5921 348.863 90.9224 349.132 92.2526 349.4C92.8845 349.519 93.5164 349.639 94.1482 349.728C94.8799 349.847 95.5783 349.997 96.3099 350.086C102.462 350.951 108.648 351.608 114.834 352.145C120.653 352.652 126.54 352.95 132.36 353.248C135.718 353.427 139.077 353.577 142.436 353.696C145.23 353.815 148.023 353.845 150.783 353.845C162.989 353.964 175.227 353.905 187.432 353.845C199.504 353.785 211.576 353.577 223.648 353.189C229.9 353.01 236.119 352.831 242.371 352.622C248.257 352.443 254.11 352.234 259.997 352.055C271.969 351.667 283.941 351.518 295.913 351.518C302.365 351.518 308.817 351.518 315.235 351.578C321.055 351.608 326.875 351.667 332.695 351.846C338.914 352.055 345.099 352.353 351.285 352.682C357.138 352.98 362.958 353.338 368.811 353.785C374.797 354.233 380.783 354.74 386.769 355.188C393.121 355.665 399.44 356.083 405.792 356.47C411.612 356.828 417.398 357.037 423.218 357.246C429.038 357.455 434.858 357.544 440.644 357.634C443.737 357.664 446.797 357.723 449.889 357.753C452.483 357.753 455.111 357.813 457.705 357.813C458.17 357.813 458.636 357.813 459.068 357.813C465.287 357.783 471.539 357.723 477.758 357.544C484.177 357.365 490.628 357.127 497.047 356.798C500.273 356.619 503.498 356.44 506.724 356.261C509.351 356.112 511.979 355.963 514.573 355.695C516.236 355.516 517.898 355.367 519.561 355.188C521.39 355.009 523.219 354.68 525.048 354.412C526.512 354.203 527.975 353.905 529.438 353.636C530.935 353.368 532.431 353.01 533.928 352.711C537.619 351.906 541.244 350.921 544.803 349.698C552.185 347.192 559.136 343.463 564.756 338.392C567.217 336.154 569.246 333.499 570.609 330.576C571.341 329.024 571.84 327.443 572.206 325.773C572.505 324.4 572.671 322.968 572.804 321.566C572.937 320.194 573.104 318.851 573.17 317.479C573.27 316.017 573.303 314.526 573.336 313.064C573.403 310.289 573.336 307.515 573.37 304.741C573.37 302.085 573.436 299.46 573.469 296.805C573.569 291.256 573.802 285.737 574.234 280.218C574.633 274.848 575.299 269.478 575.764 264.079C576.729 253.279 576.728 242.42 576.728 231.561C576.728 220.433 576.662 209.306 576.462 198.178C576.429 195.434 576.396 192.689 576.363 189.974Z" stroke="black" stroke-miterlimit="10"/>
<path d="M472.87 367.001C506.458 369.298 540.679 363.541 571.042 350.474C574.933 348.803 578.89 346.924 581.517 343.821C585.309 339.376 585.608 333.35 585.708 327.741C586.24 304.203 586.772 280.636 587.304 257.098" stroke="black" stroke-miterlimit="10"/>
<path d="M1.92886 76.3716C1.43002 65.3634 1.5963 54.3253 2.39445 43.3469C3.12608 33.2038 5.15471 21.8674 14.3334 15.9009C19.5546 12.4999 26.2059 11.5155 32.5578 10.6205C54.3738 7.57756 76.1899 4.53463 98.0392 1.4917" stroke="black" stroke-miterlimit="10"/>
</svg>
